<svg xmlns="http://www.w3.org/2000/svg" width="88.542" height="78.271" viewBox="0 0 88.542 78.271">
  <g id="Kids" transform="translate(-574.607 -733.814)">
    <g id="Group_17" data-name="Group 17" transform="translate(574.607 734.339)">
      <g id="Group_16" data-name="Group 16" transform="translate(0 0)">
        <path id="Path_2" data-name="Path 2" d="M157.058,442.725c-.963.2-4.588,1.149-4.987,2.7.118.446,2.486.815,4.62.774,2.024-.039,2.346-.212,2.6-.7a2.851,2.851,0,0,0-.2-2.361A2.094,2.094,0,0,0,157.058,442.725Z" transform="translate(-151.315 -369.981)" fill="#3d3d3d"/>
        <path id="Path_3" data-name="Path 3" d="M173.684,441.07c-.727.662-3.368,3.322-2.925,4.857.328.324,2.555-.562,4.373-1.682,1.722-1.061,1.912-1.373,1.883-1.928a2.853,2.853,0,0,0-1.374-1.93A2.1,2.1,0,0,0,173.684,441.07Z" transform="translate(-149.627 -370.188)" fill="#3d3d3d"/>
        <path id="Path_4" data-name="Path 4" d="M157.081,432.167c-.5,3.721-1.219,7.191-.407,11.506.188.532,1.907.688,2.033.407.032-4.315,2.564-9.349,3.909-10.162C161.584,432.323,157.081,432.167,157.081,432.167Z" transform="translate(-150.931 -370.929)" fill="#ffcb9d"/>
        <path id="Path_5" data-name="Path 5" d="M168.4,431.859c1.459,3.458,2.6,6.813,5.5,10.116.432.363,1.992-.376,1.958-.683-2.166-3.732-2.543-9.355-1.8-10.738C172.353,429.7,168.4,431.859,168.4,431.859Z" transform="translate(-149.836 -371.093)" fill="#ffcb9d"/>
        <path id="Path_6" data-name="Path 6" d="M154.761,422.649c-.75,1.128-1.456,1.721-1.206,2.628a2.162,2.162,0,0,0,2.314,1.376c.469-.189.563-3.19.563-3.659S155.079,422.17,154.761,422.649Z" transform="translate(-151.185 -371.812)" fill="#ffcb9d"/>
        <path id="Path_7" data-name="Path 7" d="M160.654,396.9c-.625,3.351-4.314,2.4-7.317,5.148s-.851,9.073,5.7,10.267c4.989.4,8.932-10.7,8.557-13.484S160.654,396.9,160.654,396.9Z" transform="translate(-151.321 -374.134)" fill="#e3884f"/>
        <g id="Group_6" data-name="Group 6" transform="translate(0 21.514)">
          <path id="Path_8" data-name="Path 8" d="M157.4,411.876c-3.8-1.365-6.047-3.9-6.019-6.777a5.529,5.529,0,0,1,3.945-5.1c4.142-1.412,4.325-2.912,4.172-4.206l.484-.048c.185,1.567-.23,3.217-4.485,4.669a5.083,5.083,0,0,0-3.628,4.693c-.026,2.687,2.108,5.066,5.71,6.36Z" transform="translate(-151.378 -395.742)" fill="#e3884f"/>
        </g>
        <path id="Path_9" data-name="Path 9" d="M159.423,387.263c-2.688,4.69-3,10.569.688,13.445s10.319,1.688,12.945-.188,6.754-8.943-.5-14.2S159.423,387.263,159.423,387.263Z" transform="translate(-150.835 -375.272)" fill="#ffcb9d"/>
        <g id="Group_7" data-name="Group 7" transform="translate(28.714 17.067)">
          <path id="Path_10" data-name="Path 10" d="M177.722,414.848h-.015v-.487a12.237,12.237,0,0,0,8.256-3.332,8.681,8.681,0,0,0,2.58-6.368c0-4.121-1.932-5.764-3.8-7.351-1.665-1.413-3.238-2.749-3.323-5.632l.486-.014c.08,2.665,1.572,3.934,3.152,5.275,1.863,1.582,3.975,3.376,3.973,7.722a9.155,9.155,0,0,1-2.722,6.712A12.774,12.774,0,0,1,177.722,414.848Z" transform="translate(-177.707 -391.664)" fill="#e3884f"/>
        </g>
        <path id="Path_11" data-name="Path 11" d="M159.569,406.221c-1.251.594-2.947,6.433-3.855,10.217-.791,3.294-1.675,6.691-1.675,7.19,0,.407,1.688,1.6,3.1,1.786S160.82,405.627,159.569,406.221Z" transform="translate(-151.137 -373.28)" fill="#47c45d"/>
        <path id="Path_12" data-name="Path 12" d="M163.695,403.63a17.354,17.354,0,0,0-4.163,2.859c-.938,2.47-2.236,7.3-3.6,15.509s-1.738,10.458-1.338,11.959,5.686,4.128,12.118,3.753,11.685-2.768,11.967-4.6-.141-9.145-4.222-13.6c.564-7.5,2.969-11.511.717-13.02a51.677,51.677,0,0,0-5.993-3.136C168.739,403.054,164.387,403.46,163.695,403.63Z" transform="translate(-151.1 -373.548)" fill="#47c45d"/>
        <g id="Group_8" data-name="Group 8" transform="translate(3.185 29.536)">
          <path id="Path_13" data-name="Path 13" d="M165.485,437.922h0c-5.794,0-10.609-2.335-11.029-3.909-.406-1.525-.043-3.714,1.308-11.862l.027-.167c1.548-9.337,2.923-13.744,3.6-15.539l.025-.045a17.39,17.39,0,0,1,4.251-2.914,32.113,32.113,0,0,1,4.541-.388c.778,0,.985.072,1.079.135.122.082.5.252.97.467a35.153,35.153,0,0,1,5.023,2.67c1.482.994,1.091,2.9.442,6.066a53.638,53.638,0,0,0-1.081,7.033c4.106,4.538,4.477,11.975,4.214,13.683-.294,1.918-5.54,4.35-12.117,4.734C166.325,437.91,165.9,437.922,165.485,437.922Zm-5.8-31.336c-.681,1.8-2.042,6.186-3.577,15.452l-.028.166c-1.34,8.093-1.7,10.269-1.313,11.726.336,1.26,4.769,3.668,10.715,3.668h0c.411,0,.827-.012,1.237-.036,6.324-.369,11.545-2.7,11.815-4.458.258-1.682-.109-9.022-4.18-13.467l-.048-.052.005-.07a54.009,54.009,0,0,1,1.092-7.143c.622-3.03,1-4.858-.3-5.73A34.855,34.855,0,0,0,170.125,404a10.125,10.125,0,0,1-1.016-.493,2.3,2.3,0,0,0-.9-.081,32.5,32.5,0,0,0-4.464.38A17.329,17.329,0,0,0,159.688,406.586Z" transform="translate(-154.298 -403.098)" fill="#fff"/>
        </g>
        <path id="Path_14" data-name="Path 14" d="M165.131,415.61c-2.3.375-4.338,1.994-4.222,3.518a2.136,2.136,0,0,0,2.579,1.989c1.056-.277,1.853-1.966,2.018-1.9a4.188,4.188,0,0,0,.35,2.476c-1.441,2.8-1.288,4.138-.655,4.676.907.773,3.385,1.149,4.214.493a4.36,4.36,0,0,0,1.147-2.931,6.887,6.887,0,0,0,1.08-.2c.547,1.8.954,2.423,1.879,2.534s3.882-1.135,3.719-3.035c.085-.992-1.722-2.577-2.868-3.928-2.035-4.737-.564-6.672-2.533-7.341S165.131,415.61,165.131,415.61Z" transform="translate(-150.515 -372.765)" fill="#37415c"/>
        <g id="Group_9" data-name="Group 9" transform="translate(10.296 39.034)">
          <path id="Path_15" data-name="Path 15" d="M168.05,427.3a4.992,4.992,0,0,1-2.9-.852c-.578-.493-.939-1.717.61-4.745a3.124,3.124,0,0,1-.334-2.188c.007-.041.014-.084.019-.122-.06.073-.141.184-.215.287a3.763,3.763,0,0,1-1.707,1.53,2.232,2.232,0,0,1-2.7-2.072c-.117-1.529,1.876-3.212,4.273-3.613.351-.318,4.168-3.723,6.284-3.723a1.53,1.53,0,0,1,.5.075c1.1.373,1.185,1.146,1.329,2.429a15.848,15.848,0,0,0,1.255,4.95c.282.333.611.686.929,1.027,1.038,1.118,2.02,2.172,1.951,2.959a2.133,2.133,0,0,1-.645,1.641,5,5,0,0,1-3.044,1.487h0a1.248,1.248,0,0,1-.134-.008c-1.018-.123-1.426-.877-1.931-2.515a7,7,0,0,1-.927.176,4.4,4.4,0,0,1-1.179,2.918A2.435,2.435,0,0,1,168.05,427.3Zm-2.548-8.172h.019l.029.01c.116.049.094.184.058.408a2.947,2.947,0,0,0,.336,2.107l.026.045-.024.046c-1.6,3.109-1.111,4.192-.677,4.562a4.867,4.867,0,0,0,2.781.807,2.206,2.206,0,0,0,1.313-.316,4.273,4.273,0,0,0,1.112-2.863l0-.082.082-.008a6.834,6.834,0,0,0,1.062-.2l.088-.025.027.088c.552,1.813.955,2.367,1.8,2.469a4.656,4.656,0,0,0,3.018-1.421,1.967,1.967,0,0,0,.6-1.514c.061-.72-.937-1.793-1.9-2.83-.323-.348-.657-.707-.944-1.045l-.014-.024a16.02,16.02,0,0,1-1.275-5.017c-.145-1.29-.217-1.937-1.2-2.272a1.345,1.345,0,0,0-.435-.065c-2.1,0-6.138,3.656-6.178,3.693l-.021.019-.027,0c-2.319.378-4.254,1.976-4.143,3.418a2.047,2.047,0,0,0,2.463,1.906c.67-.177,1.253-.979,1.6-1.459C165.319,419.239,165.4,419.133,165.5,419.133Z" transform="translate(-160.819 -411.807)" fill="#fff"/>
        </g>
        <path id="Path_16" data-name="Path 16" d="M169.322,418.52c-1.073.116-3.119,0-3.933.469s-.107,3.252.775,3.5,3.465-1.564,3.893-2.142S169.757,418.474,169.322,418.52Z" transform="translate(-150.141 -372.165)" fill="#ffcb9d"/>
        <path id="Path_17" data-name="Path 17" d="M173.411,405.951c3.115-.011,5.565,5,5.084,8.908-.328,2.673-2.11,5.957-8.583,7.082-.563-.047-1.172-2.674-.891-2.815,2.579-1.782,2.512-4.234,2.271-6.038C170.73,408.866,171.648,405.951,173.411,405.951Z" transform="translate(-149.786 -373.303)" fill="#47c45d"/>
        <g id="Group_10" data-name="Group 10" transform="translate(19.002 32.485)">
          <path id="Path_18" data-name="Path 18" d="M169.934,422.118l-.021,0c-.644-.053-1.017-1.952-1.033-2.033-.177-.914-.013-1.038.071-1.083,2.4-1.664,2.457-3.9,2.193-5.877-.406-3.044-.056-5.537.936-6.67a1.744,1.744,0,0,1,1.345-.651,4.051,4.051,0,0,1,2.994,1.561,10.272,10.272,0,0,1,2.252,7.529c-.327,2.66-2.1,6.072-8.717,7.222Zm-.8-2.852a5.1,5.1,0,0,0,.555,2.248c.122.215.2.264.233.275,6.393-1.12,8.108-4.39,8.42-6.936a9.92,9.92,0,0,0-2.172-7.275,3.739,3.739,0,0,0-2.741-1.451,1.435,1.435,0,0,0-1.11.54c-.93,1.063-1.251,3.46-.857,6.413C171.727,415.028,171.7,417.492,169.139,419.266Z" transform="translate(-168.802 -405.802)" fill="#fff"/>
        </g>
        <path id="Path_19" data-name="Path 19" d="M164.458,409.557a2.722,2.722,0,0,0-4.247.167c-1,1.5-.508,4.285,1.928,4.28,1.916,0,1.949-1.158,1.949-1.158S164.721,409.881,164.458,409.557Z" transform="translate(-150.622 -373.062)" fill="#37415c"/>
        <path id="Path_20" data-name="Path 20" d="M163.263,411a.911.911,0,0,0-1.641-.445c-.586.656-.351,2.063,1.2,1.758A3.093,3.093,0,0,0,163.263,411Z" transform="translate(-150.477 -372.919)" fill="#323a52"/>
        <path id="Path_21" data-name="Path 21" d="M166.411,408.513a2.723,2.723,0,0,1,2.479-3.453c1.8-.008,3.856,1.937,2.509,3.969-1.058,1.6-2.04.988-2.04.988S166.536,408.91,166.411,408.513Z" transform="translate(-150.026 -373.384)" fill="#37415c"/>
        <path id="Path_22" data-name="Path 22" d="M168.176,408.36a.911.911,0,0,1,.533-1.615c.87-.128,1.915.843.808,1.967A3.105,3.105,0,0,1,168.176,408.36Z" transform="translate(-149.887 -373.232)" fill="#323a52"/>
        <path id="Path_23" data-name="Path 23" d="M165.249,408.678c-2.409,1.133-3.551,4.227-1.706,6.357,1.737,2.007,5.066,1.389,7.133-.459a4.086,4.086,0,0,0,.228-5.226C169.523,407.625,167.456,407.64,165.249,408.678Z" transform="translate(-150.359 -373.121)" fill="#37415c"/>
        <g id="Group_11" data-name="Group 11" transform="translate(12.177 34.748)">
          <path id="Path_24" data-name="Path 24" d="M166.463,416.381h0a3.809,3.809,0,0,1-2.982-1.276,3.751,3.751,0,0,1-.85-3.3,4.719,4.719,0,0,1,2.586-3.205,6.739,6.739,0,0,1,2.823-.724,3.616,3.616,0,0,1,2.946,1.423,4.164,4.164,0,0,1-.239,5.354A6.662,6.662,0,0,1,166.463,416.381Zm1.577-8.317a6.542,6.542,0,0,0-2.743.707,4.52,4.52,0,0,0-2.482,3.074,3.563,3.563,0,0,0,.807,3.136,3.627,3.627,0,0,0,2.84,1.211h0a6.457,6.457,0,0,0,4.158-1.678,3.967,3.967,0,0,0,.218-5.1A3.438,3.438,0,0,0,168.04,408.065Z" transform="translate(-162.544 -407.877)" fill="#fff"/>
        </g>
        <path id="Path_25" data-name="Path 25" d="M167.147,412.35a1.08,1.08,0,0,0-.52.649,1.531,1.531,0,0,0,1.03.035,1.461,1.461,0,0,0,.38-.912A1.56,1.56,0,0,0,167.147,412.35Z" transform="translate(-149.997 -372.745)" fill="#fff"/>
        <path id="Path_26" data-name="Path 26" d="M166,412.608a.43.43,0,1,1-.43-.43A.43.43,0,0,1,166,412.608Z" transform="translate(-150.132 -372.739)" fill="#fff"/>
        <path id="Path_27" data-name="Path 27" d="M168.7,411.057a.43.43,0,1,1-.43-.431A.43.43,0,0,1,168.7,411.057Z" transform="translate(-149.887 -372.88)" fill="#fff"/>
        <g id="Group_12" data-name="Group 12" transform="translate(17.546 40.22)">
          <path id="Path_28" data-name="Path 28" d="M167.583,414.62l-.074-.172a1.7,1.7,0,0,0,.411-.738l-.453-.715.158-.1.5.792-.014.041C168.069,413.857,167.843,414.508,167.583,414.62Z" transform="translate(-167.467 -412.894)" fill="#fff"/>
        </g>
        <g id="Group_13" data-name="Group 13" transform="translate(18.092 40.9)">
          <path id="Path_29" data-name="Path 29" d="M168.513,413.772a5.312,5.312,0,0,1-.546-.037l.021-.186a1.8,1.8,0,0,0,.92-.031l.108.154A.934.934,0,0,1,168.513,413.772Z" transform="translate(-167.967 -413.518)" fill="#fff"/>
        </g>
        <path id="Path_30" data-name="Path 30" d="M163.822,400.66c.07,1.149-.118,2.861-.9,3.277.165.8,1.153,2.093,1.481,2.093.68,0,3.377-1.125,4.01-2.368-.338-.637-.047-3.1-.141-3.659S163.822,400.66,163.822,400.66Z" transform="translate(-150.332 -373.855)" fill="#ffcb9d"/>
        <g id="Group_14" data-name="Group 14" transform="translate(4.343)">
          <path id="Path_31" data-name="Path 31" d="M172.582,395.011c-3.635-.793-3.5-3.721-3.442-4.823l.005-.112-.322.087c-1.721.474-6.957,1.918-10.566-.324a6.5,6.5,0,0,1-2.9-5.877,7.8,7.8,0,0,1,3.608-6.635c4.274-2.411,7.226-1.093,9.781.693l-.279.4c-2.8-1.958-5.448-2.82-9.262-.667a7.3,7.3,0,0,0-3.361,6.222,6.022,6.022,0,0,0,2.666,5.452c3.429,2.13,8.51.73,10.179.269.549-.152.648-.179.763-.13.2.084.186.273.169.647-.052,1.083-.173,3.62,3.06,4.324Z" transform="translate(-155.36 -376.014)" fill="#e3884f"/>
        </g>
        <path id="Path_32" data-name="Path 32" d="M168.562,389.8c-2.261.455-10.319,1.938-11.732-3.972A7.332,7.332,0,0,1,164,376.575c2.939.188,4,1.563,4.5,1.438s4.44-1.438,7.628,1.125,1.376,2.5,4.315,4.128,4.065,3.189,3.5,7.754.226,5.217,3.565,8.817c4,4.315,3.123,14.445-7.7,16.008-.231-3.109-1.809-5.127-5.436-5.065a5.892,5.892,0,0,1-5.878-6.128c0-3.753,3.913-6.129,4.832-6.566,1.609-.626,2.407-2.382,1.734-3.377-.75-1.109-2-.5-2.564.313a6,6,0,0,1-3.034-5.191C169.4,389.626,169.192,389.674,168.562,389.8Z" transform="translate(-150.905 -375.965)" fill="#e3884f"/>
        <g id="Group_15" data-name="Group 15" transform="translate(7.662 2.663)">
          <path id="Path_33" data-name="Path 33" d="M171.488,408.589a6.538,6.538,0,0,1-1.6-5.344c.39-1.911,1.894-3.649,4.349-5.026a3.311,3.311,0,0,0,1.932-2.9,2.317,2.317,0,0,0-1.238-2.026,2.417,2.417,0,0,0-2.541.43l-.1.077-.122-.044c-1.4-.5-1.707-2.171-1.95-3.514-.134-.739-.273-1.5-.565-1.684a.367.367,0,0,0-.324-.014c-2.519.8-6.153.9-8.585-.665a4.879,4.879,0,0,1-2.293-3.68,5.021,5.021,0,0,1,1.8-4.771,6.219,6.219,0,0,1,6.182-.309l-.191.448a5.745,5.745,0,0,0-5.7.25,4.492,4.492,0,0,0-1.6,4.325,4.409,4.409,0,0,0,2.074,3.326c2.286,1.477,5.841,1.351,8.177.61a.854.854,0,0,1,.721.064c.479.293.623,1.091.79,2.012.225,1.239.478,2.636,1.519,3.1a2.872,2.872,0,0,1,2.933-.4,2.811,2.811,0,0,1,1.513,2.449,3.781,3.781,0,0,1-2.182,3.344c-2.327,1.306-3.748,2.93-4.109,4.7a6.078,6.078,0,0,0,1.5,4.949Z" transform="translate(-158.403 -378.456)" fill="#fff"/>
        </g>
      </g>
    </g>
    <g id="Group_62" data-name="Group 62" transform="translate(620.721 733.814)">
      <path id="Path_123" data-name="Path 123" d="M177.816,193.189c.284,1.622.841,3.363,1.77,4.027.531.177,3.142-1.062,2.877-2.744-.354-1.283-2.435-2.581-3.01-2.971S177.615,192.043,177.816,193.189Z" transform="translate(-140.054 -146.531)" fill="#ffcb9d"/>
      <path id="Path_124" data-name="Path 124" d="M147.65,182.768c-.8-1.063-2.7-2.015-3.5-1.782s-2.036,3.154-1.284,4.038,3.142.8,4.47.443A2.521,2.521,0,0,0,147.65,182.768Z" transform="translate(-142.638 -147.3)" fill="#ffcb9d"/>
      <path id="Path_125" data-name="Path 125" d="M161.441,175.355c-2.1,1.312-4.912,5.037-7.9,6.453a9.5,9.5,0,0,1-5.955.93c-.842-.133-1.284,3.584-.886,3.762s8.321,2.7,13.188-1.372C162.144,181.985,161.441,175.355,161.441,175.355Z" transform="translate(-142.35 -147.711)" fill="#fd0"/>
      <g id="Group_59" data-name="Group 59" transform="translate(4.04 27.373)">
        <path id="Path_126" data-name="Path 126" d="M152.6,187.611h0a19.388,19.388,0,0,1-5.957-.948c-.507-.225-.065-2.421-.061-2.443.164-.775.487-1.71,1.037-1.622l.025,0a9.074,9.074,0,0,0,1.506.132,10.114,10.114,0,0,0,4.33-1.052,21.011,21.011,0,0,0,4.952-3.915,20.966,20.966,0,0,1,2.934-2.528l.217-.135.027.254c.029.273.684,6.725-1.583,9.881l-.027.029A11.206,11.206,0,0,1,152.6,187.611Zm-5.813-1.233a19.129,19.129,0,0,0,5.812.914h0a10.9,10.9,0,0,0,7.177-2.255c1.931-2.712,1.635-8.126,1.536-9.381a24.05,24.05,0,0,0-2.66,2.341,21.225,21.225,0,0,1-5.038,3.974,10.43,10.43,0,0,1-4.467,1.083,9.309,9.309,0,0,1-1.557-.136l-.025,0c-.109-.018-.244.131-.368.393A6.1,6.1,0,0,0,146.79,186.378Z" transform="translate(-146.401 -175.103)" fill="#fff"/>
      </g>
      <path id="Path_127" data-name="Path 127" d="M153.432,217.284c-.627,1.358-3.606,3.527-3.325,5.486.625.622,3.472-.438,5.5-1.362,1.524-.693,2.115-1.148,2.091-1.623-.067-1.328-1.489-2.9-1.593-3.209C155.3,216.34,153.432,217.284,153.432,217.284Z" transform="translate(-142.09 -144.685)" fill="#3d3d3d"/>
      <path id="Path_128" data-name="Path 128" d="M173.609,214.711c-.046,1.5-1.941,4.655-.918,6.347.818.328,3.026-1.758,4.535-3.4,1.133-1.233,1.5-1.882,1.29-2.311-.58-1.2-2.5-2.084-2.719-2.332C174.96,213.113,173.609,214.711,173.609,214.711Z" transform="translate(-140.451 -144.944)" fill="#3d3d3d"/>
      <path id="Path_129" data-name="Path 129" d="M156.912,192.431c-1.8,3.322-4.721,7.822-4.957,14.136a59.234,59.234,0,0,0,.922,12.554c.177.531,3.327-.339,3.386-.812,0-3.481,2.369-9.914,5.256-12.686a42.582,42.582,0,0,0,4.008-4.249s0-7.022-.649-7.789S157.381,191.565,156.912,192.431Z" transform="translate(-141.955 -146.478)" fill="#323a52"/>
      <path id="Path_130" data-name="Path 130" d="M165.087,195.358c-2.336-.819-4.637-.612-4.57.444.308,4.806.715,6.765-.6,8.723s-3.992,6.443-4.192,11.012c-.107,1.364-.246,2.595-.924,3.241.661-.205,1.226-.471,1.251-.669,0-3.481,2.369-9.914,5.256-12.686a42.583,42.583,0,0,0,4.008-4.249S165.315,197.686,165.087,195.358Z" transform="translate(-141.744 -146.278)" fill="#d6d6d6" style="mix-blend-mode: multiply;isolation: isolate"/>
      <path id="Path_131" data-name="Path 131" d="M155.817,190.476c1.18,3.954,2.573,9.576,6.373,15.224a29.619,29.619,0,0,0,8.441,8.079c.354.177,3.537-2.3,2.948-2.591a22.525,22.525,0,0,1-3.717-12.214c-.118-5.087-1.358-8.616-2.479-9.264C164.491,189.178,155.817,190.476,155.817,190.476Z" transform="translate(-141.669 -146.666)" fill="#3d4865"/>
      <path id="Path_132" data-name="Path 132" d="M161.551,174.468c-1.616,1.195-4.942,5.785-5.163,11.538s-.265,7.833.221,8.5,4.735,2.124,9.471,1.726,5.753-.93,6.018-1.505-.274-4.779.748-5.355,2.925.929,4.165,2.522a30.314,30.314,0,0,0,2.079,2.612c.354.31,2.656-1.372,2.39-2.08s-2.79-8.431-6.065-12.591-7.079-6.43-8.583-6.722A7.254,7.254,0,0,0,161.551,174.468Z" transform="translate(-141.639 -147.882)" fill="#fd0"/>
      <path id="Path_133" data-name="Path 133" d="M157.871,160.055c-1.6,0-4.472-3.968-1.938-7.372,2.3-3.093,7.082-2.6,8.472.539a2.249,2.249,0,0,1,3.142,1.9c2.168-.4,3.1,1.275,3.274,2.833,1.992.974,2.612,4.248,1.726,7.345-1.122,3.925-4.912,7.127-7.391,6.773S156.587,167.845,157.871,160.055Z" transform="translate(-141.734 -149.53)" fill="#e3884f"/>
      <path id="Path_134" data-name="Path 134" d="M156.763,159.27c-3.009,4.13-4.086,9.251.31,12.084s10.71.471,11.89-2.006c1-1.888.944-2.243,1.534-2.243s1.859-.775,1.431-1.862-1.549.085-2.2.059a1.138,1.138,0,0,1-1.122-1.442c.177-.945-1.239-.886-1.416-2.6-1.888.827-3.446.531-3.935-.708-.9.531-3.2.531-3.559-1.534C157.737,160.172,156.763,159.27,156.763,159.27Z" transform="translate(-141.793 -148.911)" fill="#ffcb9d"/>
      <g id="Group_60" data-name="Group 60" transform="translate(12.32 0)">
        <path id="Path_135" data-name="Path 135" d="M157.712,160.234a2.983,2.983,0,0,1-2.254-1.117,6.1,6.1,0,0,1-.678-6.569,5.789,5.789,0,0,1,7.348-2.519,5.113,5.113,0,0,1,2.723,2.466,2.7,2.7,0,0,1,2.247.263,2.563,2.563,0,0,1,1.079,1.8,2.624,2.624,0,0,1,2.333.623c.809.782,1.058,2.119.7,3.765l-.469-.1a3.5,3.5,0,0,0-.566-3.318,2.2,2.2,0,0,0-2.149-.445l-.276.07-.021-.284a2.173,2.173,0,0,0-.9-1.711,2.3,2.3,0,0,0-2.033-.145l-.214.071-.085-.207a4.729,4.729,0,0,0-2.537-2.4,5.327,5.327,0,0,0-6.765,2.3,5.671,5.671,0,0,0,.62,6.021,2.37,2.37,0,0,0,2.764.784l.172.448A2.9,2.9,0,0,1,157.712,160.234Z" transform="translate(-154.114 -149.603)" fill="#e3884f"/>
      </g>
      <path id="Path_136" data-name="Path 136" d="M161.848,171.176a4.833,4.833,0,0,1-.661,3.487c.619.6,2.256.459,3.245.131.73-.242,1.945-1.047,2.036-1.489a5.893,5.893,0,0,1-.468-2.937C163.9,170.855,161.848,171.176,161.848,171.176Z" transform="translate(-141.274 -148.078)" fill="#ffcb9d"/>
      <g id="Group_61" data-name="Group 61" transform="translate(14.39 28.437)">
        <path id="Path_137" data-name="Path 137" d="M156.361,186.807l-.319-.013c0-.012.128-1.2.2-2.158.555-5.827,3.095-8.432,3.2-8.543l.232.22c-.025.026-2.57,2.645-3.113,8.35C156.489,185.608,156.361,186.8,156.361,186.807Z" transform="translate(-156.042 -176.094)" fill="#fff"/>
      </g>
    </g>
  </g>
</svg>
