<svg xmlns="http://www.w3.org/2000/svg" width="119.118" height="111.893" viewBox="0 0 119.118 111.893">
  <g id="Group_76" data-name="Group 76" transform="translate(-766 -3038.82)">
    <path id="Path_177" data-name="Path 177" d="M81.8.012c1.909,0,2.758-.029,3.6.006a4.307,4.307,0,0,1,3.909,2.8A14.974,14.974,0,0,1,90.363,6.2q2.626,14.25,5.161,28.517c1.233,7.011,2.351,14.043,3.557,21.058a16.5,16.5,0,0,1,.229,5.054,6.87,6.87,0,0,1-4.746,6.044c-.8.282-1.639.44-2.434.724-1.272.454-1.626,1.072-1.242,2.308.552,1.78,1.167,3.543,1.8,5.3,1.085,3.032,2.224,6.045,3.29,9.082a14.592,14.592,0,0,1,.736,2.929,1.662,1.662,0,0,1-2.273,1.822,49.972,49.972,0,0,1-5.2-3.149c-5.854-4.058-11.714-8.107-17.46-12.313a7.37,7.37,0,0,0-6.543-1.334C50.481,75.39,35.69,78.36,20.889,81.258c-6.511,1.275-7.583,1.292-10.118-5.864C8.8,69.832,7.7,63.944,6.435,58.154,4.369,48.717,2.48,39.241.52,29.782c-.1-.5-.216-1-.29-1.5-.858-5.74.593-8.42,5.947-10.894a93.467,93.467,0,0,1,14.948-4.946A476.843,476.843,0,0,1,77.295.524C79.14.256,81,.1,81.8.012Zm10.6,83.821c-1.453-4.375-2.7-8.042-3.88-11.728a29.333,29.333,0,0,1-.987-3.929A2.163,2.163,0,0,1,88.9,65.714c1.086-.468,2.235-.778,3.345-1.192,3.477-1.3,4.238-2.332,4-6.07A70.241,70.241,0,0,0,95.3,51.4Q92.435,34.365,89.5,17.342q-.951-5.507-2.049-10.986c-.531-2.64-1.47-3.355-4.256-3.25a40.678,40.678,0,0,0-4.541.508c-2.849.431-5.682.95-8.528,1.381A459.461,459.461,0,0,0,15.61,17.154,50.689,50.689,0,0,0,7.035,20.3C3.313,22.1,2.541,23.5,3.21,27.563c.523,3.173,1.225,6.318,1.9,9.464Q8.624,53.42,12.192,69.8a43.138,43.138,0,0,0,1.517,5.372c1.313,3.651,1.9,3.988,5.6,3.34,2.5-.438,4.979-1,7.47-1.5,12.785-2.573,25.591-5.047,38.338-7.793a8.423,8.423,0,0,1,7.141,1.4c5,3.485,10.047,6.919,15.08,10.364C88.71,81.921,89.883,83.187,92.395,83.832Z" transform="matrix(0.966, -0.259, 0.259, 0.966, 766, 3064.551)" fill="#ffba00"/>
    <path id="Path_178" data-name="Path 178" d="M0,12.708c.032-.414.038-1.268.173-2.1C.982,5.587,4.728,2.982,9.7,4.234c1.872.471,2.92.306,4.324-1.256,3.359-3.739,7.489-3.955,11.237-.662,4.754,4.175,7.166,9.275,5.618,15.856a30.736,30.736,0,0,1-4.806,10.564,7.7,7.7,0,0,1-7.4,3.59C9.542,31.47.1,25.085,0,12.708Zm3.039-.162A16.356,16.356,0,0,0,3.856,18c2.349,6.858,7.682,9.905,14.3,11.455A4.154,4.154,0,0,0,22.654,28a21.129,21.129,0,0,0,5.532-13.31c.121-4.3-2.009-7.768-5.451-10.359-2.6-1.955-6.56-.9-7.116,2.552a8.124,8.124,0,0,1-.4,1.968,1.246,1.246,0,0,1-1.676.7c-1.365-.638-2.621-1.518-4-2.112-2.893-1.247-5.435.031-6.234,3.08A12.882,12.882,0,0,0,3.038,12.546Z" transform="matrix(0.966, -0.259, 0.259, 0.966, 804.414, 3082.339)" fill="#ffba00"/>
  </g>
</svg>
