<svg xmlns="http://www.w3.org/2000/svg" width="113.633" height="61.237" viewBox="0 0 113.633 61.237">
  <g id="Kids" transform="translate(-235 -746.083)">
    <g id="Group_33" data-name="Group 33" transform="translate(235 764.064)">
      <g id="Group_19" data-name="Group 19" transform="translate(0)">
        <path id="Path_34" data-name="Path 34" d="M124.11,438.741c1.467-.79,2.022-1.118,3.228-.759a14.732,14.732,0,0,1,2.491,1.474c1.279.827,2.6,2.106,1.391,2.671s-6.546.113-7.486-.075S124.11,438.741,124.11,438.741Z" transform="translate(-61.75 -410.227)" fill="#ffcb9d"/>
        <path id="Path_35" data-name="Path 35" d="M118.015,433.8c2.145,3.121,3.725,4.853,6.058,5.906a22.909,22.909,0,0,0,5.944,1.467c.339.037.263,3.875-.151,3.989a24.761,24.761,0,0,1-9.932,1.24c-4.853-.564-5.229-2.821-4.591-6.583A12.9,12.9,0,0,1,118.015,433.8Z" transform="translate(-67.507 -413.033)" fill="#47c45d"/>
        <path id="Path_36" data-name="Path 36" d="M130.437,441.907a1.1,1.1,0,0,1-1.035.857,16.769,16.769,0,0,1-5.109-.271c-2.061-.378-4.743-1.1-6.161-2.606-1.7-1.808-2.576-5.426-3.215-1.664s.415,5.68,5.268,6.244a24.76,24.76,0,0,0,9.932-1.24C130.272,443.184,130.381,442.609,130.437,441.907Z" transform="translate(-67.757 -411.101)" fill="#ebebeb" style="mix-blend-mode: multiply;isolation: isolate"/>
        <path id="Path_37" data-name="Path 37" d="M118.133,441.537c1.03-.38,1.679-1.312,3.228-.759.371.132.793.52,2.489,1.474,1.329.747,2.555,1.661,1.351,2.225s-6.5.559-7.444.371S118.133,441.537,118.133,441.537Z" transform="translate(-65.901 -408.302)" fill="#ffcb9d"/>
        <path id="Path_38" data-name="Path 38" d="M105.323,431.023c4.994-2.454,7.076-3.986,10.228-3.9,9.9.251,10.847,7.441,8.893,14.3-1.745,6.122-1.151,8.02,2.161,9.149.507.112.48,3.572-.029,3.818a21.447,21.447,0,0,1-8.973,1.266c-4.741-.456-7.37-2.854-7.183-8.652S106.343,433.552,105.323,431.023Z" transform="translate(-74.302 -417.673)" fill="#47c45d"/>
        <path id="Path_39" data-name="Path 39" d="M112.647,423.454a1.564,1.564,0,0,1,2.469-.934,2.766,2.766,0,0,1,.12,3.462c1.22-.817,2.257-.727,2.7.557a2.241,2.241,0,0,1-1.1,2.9c1.325-.291,2.342-.2,2.6,1.322.271,1.576-.271,2.586-1.64,2.994,1.4-.193,2.318.214,2.379,1.9a1.931,1.931,0,0,1-1.9,2.26,2.156,2.156,0,0,1,2.169,2.606,1.951,1.951,0,0,1-2.259,1.944,2.341,2.341,0,0,1,1.967,2.871,1.878,1.878,0,0,1-2.63,1.523,2.333,2.333,0,0,1,1.445,3.228c-.635,1.452-2.169.739-2.589.466,1.85.973,1.856,2.6,1.174,3.5s-1.837.285-2.289-.252a2.988,2.988,0,0,1,.488,3.625,1.505,1.505,0,0,1-2.455-.093,2.5,2.5,0,0,1-.463,2.981c-1.22.735-2.372-.315-2.733-1.481-.361-1.828,4.892-5.829,5.826-15.356S112.345,424.932,112.647,423.454Z" transform="translate(-70.994 -421.093)" fill="#fd0"/>
        <path id="Path_40" data-name="Path 40" d="M104.911,436.109c-.136-6.172,4.457-13.117,11.633-13.4,2.349.39,7.166,9.878,5.179,22.012-2.054,12.536-7.171,14.383-7.934,14.373a10.532,10.532,0,0,1-6.456-3.875C106.3,453.527,104.993,439.744,104.911,436.109Z" transform="translate(-74.59 -420.735)" fill="#ff4e78"/>
        <path id="Path_41" data-name="Path 41" d="M92.39,443.16c-2.028,1.283-4.677,3.023-4.519,3.8-.007.473,5.024.285,5.992-.163a3.191,3.191,0,0,0,1.551-2.342C95.544,443.705,93.054,442.741,92.39,443.16Z" transform="translate(-86.428 -406.6)" fill="#ffcb9d"/>
        <path id="Path_42" data-name="Path 42" d="M98.047,444.986c-1.51,1.218-3.616,2.649-3.616,3.394.378.632,4.968.295,5.911-.125s1.32-2.438,1.32-2.816S98.977,444.234,98.047,444.986Z" transform="translate(-81.867 -405.473)" fill="#ffcb9d"/>
        <path id="Path_43" data-name="Path 43" d="M94.8,441.062c-2.987,4.511-4.313,11.069-4.438,11.574s3.086,2.081,3.908,1.576c2.479-2.911,3.914-5.057,5.616-4.538,1.551.474.883,5.3.568,5.863-.19.568,4.414,1.64,5.3,1.135s1.21-2.791,7.075-4.9c4.026-1.445,5.16-.213,5.916-1.222s1.578-7.443,1.01-12.3a17.62,17.62,0,0,0-4.036-8.724c-.63-.442-4.162-.336-6.875.295S97.265,437.344,94.8,441.062Z" transform="translate(-84.695 -416.181)" fill="#ff4e78"/>
        <g id="Group_18" data-name="Group 18" transform="translate(5.539 12.956)">
          <path id="Path_44" data-name="Path 44" d="M105,456.981c-1.432,0-4.18-.651-4.57-1.191a.258.258,0,0,1-.047-.242,9.7,9.7,0,0,0,.122-5.063.989.989,0,0,0-.6-.637,1.735,1.735,0,0,0-.451-.061c-1.232,0-2.423,1.43-4.074,3.411-.3.364-.624.749-.962,1.149l-.031.025a.982.982,0,0,1-.515.117h0a6.351,6.351,0,0,1-3.482-1.518.365.365,0,0,1-.1-.314l.046-.2a35.7,35.7,0,0,1,4.409-11.411c2.523-3.808,11.414-10.66,14.117-11.289a23.5,23.5,0,0,1,4.941-.566,4.761,4.761,0,0,1,2.033.291l.032.034c.027.039.088.117.178.227a16.86,16.86,0,0,1,3.879,8.552c.563,4.818-.246,11.337-1.034,12.387a1.474,1.474,0,0,1-1.374.5l-.491,0a11.411,11.411,0,0,0-4.109.768c-4.34,1.557-5.6,3.184-6.353,4.155a2.672,2.672,0,0,1-.7.73A1.822,1.822,0,0,1,105,456.981Zm-4.377-1.354c.088.325,2.725,1.1,4.377,1.1a1.572,1.572,0,0,0,.737-.115,2.537,2.537,0,0,0,.629-.666c.769-.993,2.057-2.657,6.466-4.238a11.633,11.633,0,0,1,4.194-.783l.491,0c.593,0,.9-.039,1.173-.4.686-.915,1.576-7.144.985-12.208a16.615,16.615,0,0,0-3.825-8.422c-.081-.1-.142-.178-.176-.225a4.76,4.76,0,0,0-1.871-.234,23.222,23.222,0,0,0-4.885.559c-2.667.62-11.462,7.41-13.963,11.182a35.477,35.477,0,0,0-4.374,11.326c-.022.1-.037.171-.047.208h0s0,.042.088.139a6.327,6.327,0,0,0,3.248,1.379h0a.766.766,0,0,0,.366-.071c.336-.391.649-.771.949-1.129,1.693-2.033,2.916-3.5,4.267-3.5a1.948,1.948,0,0,1,.517.071,1.218,1.218,0,0,1,.768.781C101.381,451.906,100.884,455.1,100.626,455.627Z" transform="translate(-90.286 -429.189)" fill="#fff"/>
        </g>
        <path id="Path_45" data-name="Path 45" d="M93.047,437.465a2.594,2.594,0,0,0-.586,2.838,1.88,1.88,0,0,0,1.933.63,1.6,1.6,0,0,0,2.481,2,1.877,1.877,0,0,0,3.626.471,1.878,1.878,0,0,0,3.574-.888c1.566,1.257,3.752-.3,2.954-2.011,2.059.81,3.342-1.146,2.176-2.616a1.817,1.817,0,0,0,.818-3.438C108.352,433.092,93.674,436.886,93.047,437.465Z" transform="translate(-83.386 -412.783)" fill="#fd0"/>
        <path id="Path_46" data-name="Path 46" d="M92.67,438.578a6.9,6.9,0,0,0,7.022,6.139c4.624-.042,10.637-5.172,9.964-10.386C106.209,428.4,92.46,436.225,92.67,438.578Z" transform="translate(-83.092 -414.171)" fill="#fff"/>
        <path id="Path_47" data-name="Path 47" d="M114,440.739c2.438-4.794,1.7-10.179-2.438-14.715a14.773,14.773,0,0,0-20.685-.505c-5.4,4.933-4.794,12.445-.29,17.195,5.073,5.35,13.06,5.248,18.779,1.632.588-.085,2.049.378,3.469-.127C114.645,443.574,115.85,441.191,114,440.739Z" transform="translate(-87.017 -421.543)" fill="#ffcb9d"/>
        <path id="Path_48" data-name="Path 48" d="M102.1,433.173l.037.07a2.937,2.937,0,0,1,1.381-.317c.034-.066.032-.066.064-.132A2.955,2.955,0,0,0,102.1,433.173Z" transform="translate(-76.538 -413.73)" fill="#fff"/>
      </g>
    </g>
    <g id="Group_58" data-name="Group 58" transform="translate(305.541 746.084)">
      <path id="Path_90" data-name="Path 90" d="M96.656,221.14c-.987.22-3.685,1.285-4.116,3.567.109.665,5.788.359,7.172.342a2.619,2.619,0,0,0,2.23-2.553C101.869,221.634,97.271,221,96.656,221.14Z" transform="translate(-91.629 -168.587)" fill="#f56038"/>
      <path id="Path_91" data-name="Path 91" d="M100.922,222.271c-.02-.238-.385-.458-.914-.649a2.6,2.6,0,0,0-1.119.4,3.784,3.784,0,0,0-2.318,2.305c-.046.272-.849.472-1.759.585,1.556,0,3.215-.077,3.88-.085A2.619,2.619,0,0,0,100.922,222.271Z" transform="translate(-90.609 -168.362)" fill="#c4c4c4" style="mix-blend-mode: multiply;isolation: isolate"/>
      <path id="Path_92" data-name="Path 92" d="M113.573,212.05c5.654-3.14,8.925-5.532,10.9-4.2s5.568,7.87,1.829,13.838-11.139,6.859-16.836,5.149C104.3,225.286,111.742,213.069,113.573,212.05Z" transform="translate(-84.838 -174.713)" fill="#3d4865"/>
      <path id="Path_93" data-name="Path 93" d="M114.479,212.885c-1.8-2.507-7.3-2.043-11.487-.619-4.093,1.389-7.069,5.956-7.513,11.961.091.719,5.987,2.308,6.633,1.729s3.5-2.815,6.34-1.42S115.386,214.148,114.479,212.885Z" transform="translate(-90.309 -173.085)" fill="#323a52"/>
      <path id="Path_94" data-name="Path 94" d="M109.781,214.313c-.653-2.111-1.685-2.909-2.544-3.185-.491.033-.993.091-1.5.167.116,1.617-1.205,1.778-3.254,4.042-2.92,3.228-3.047,5.932-3.306,8.431a2.568,2.568,0,0,1-1.062,1.973c1.319.3,2.536.448,2.809.2.648-.578,3.779-3.17,6.619-1.776a1.026,1.026,0,0,0,.151.061C109.619,220.908,110.6,216.964,109.781,214.313Z" transform="translate(-89.125 -173.072)" fill="#c4c4c4" style="mix-blend-mode: multiply;isolation: isolate"/>
      <path id="Path_95" data-name="Path 95" d="M95.63,220.165c-.125-.143-.449.665-.484,1.24.035.287,1.755,1.008,3.94,1.4,1.726.306,2.37.293,2.586.112s.636-.853.452-.946c-.1-.049-1.823-.3-3.47-.74A18.155,18.155,0,0,1,95.63,220.165Z" transform="translate(-90.459 -169.023)" fill="#fff"/>
      <path id="Path_96" data-name="Path 96" d="M98.5,221.07c.319.219-.119,1.263-.638,1.308l.01.009a15.664,15.664,0,0,0,1.708.23.743.743,0,0,0,.5-.626,2,2,0,0,0-.055-.613c-.42-.078-.952-.183-1.521-.309Z" transform="translate(-89.242 -168.61)" fill="#c4c4c4" style="mix-blend-mode: multiply;isolation: isolate"/>
      <g id="Group_45" data-name="Group 45" transform="translate(4.578 51.017)">
        <path id="Path_97" data-name="Path 97" d="M101.1,223.183a12.816,12.816,0,0,1-2-.242c-2.02-.358-3.979-1.081-4.029-1.489.028-.472.29-1.378.559-1.378a.154.154,0,0,1,.116.054,20.036,20.036,0,0,0,2.969,1.027c1.113.294,2.243.5,2.918.627a4.059,4.059,0,0,1,.574.12.194.194,0,0,1,.1.158,1.744,1.744,0,0,1-.535.969A1.068,1.068,0,0,1,101.1,223.183ZM95.622,220.3a2.922,2.922,0,0,0-.335,1.146,9.785,9.785,0,0,0,3.853,1.281c1.507.268,2.294.307,2.5.136a1.7,1.7,0,0,0,.459-.769c-.068-.017-.271-.055-.5-.1-.678-.125-1.813-.333-2.933-.632A18.913,18.913,0,0,1,95.622,220.3Z" transform="translate(-95.071 -220.074)" fill="#323a52"/>
      </g>
      <path id="Path_98" data-name="Path 98" d="M98.574,206.413a6.765,6.765,0,0,1-1.84-2,3.423,3.423,0,0,0-2.708-1.2c-1.631.038-2.6,3.056-1.869,4.026a3.014,3.014,0,0,0,2.427,1.1,5.591,5.591,0,0,1,3.217.807C98.8,209.681,98.74,206.534,98.574,206.413Z" transform="translate(-91.911 -176.625)" fill="#ffcb9d"/>
      <path id="Path_99" data-name="Path 99" d="M110.642,202.191c-2.705,1.252-4.251,3.335-7.811,4.019a15.737,15.737,0,0,1-5.877.116c-.432,0-1.744,3.218-1.529,3.55a12.68,12.68,0,0,0,7.442,3.02,24.736,24.736,0,0,0,7.15-.871C110.272,212.106,112.412,201.372,110.642,202.191Z" transform="translate(-90.345 -177.104)" fill="#0e9feb"/>
      <path id="Path_100" data-name="Path 100" d="M107.121,202.258c-.72,1.3-3.056,4.638-3.451,7.981a27.316,27.316,0,0,0,.575,8.485c.359.611,8.16,1.007,14.163-2.049s8.541-4.789,8.4-5.457c-.549-2.594-6.3-7.608-9.4-10.361A94.5,94.5,0,0,0,107.121,202.258Z" transform="translate(-86.689 -177.683)" fill="#0e9feb"/>
      <g id="Group_46" data-name="Group 46" transform="translate(20.274 23.417)">
        <path id="Path_101" data-name="Path 101" d="M105.913,205.841l-.009-.216a18.79,18.79,0,0,0,5.652-1.368,12.782,12.782,0,0,0,5.028-3.232l.187.109c-.252.43-1.937,2.018-5.132,3.324A19.048,19.048,0,0,1,105.913,205.841Z" transform="translate(-105.904 -201.025)" fill="#fff"/>
      </g>
      <path id="Path_102" data-name="Path 102" d="M104.86,205.144c2.591.017,9.625-1.63,11.952-4.287-3.516.175-10.281,1.4-10.281,1.4C106.2,202.854,105.528,203.884,104.86,205.144Z" transform="translate(-86.099 -177.683)" fill="#ffcb9d"/>
      <g id="Group_47" data-name="Group 47" transform="translate(16.856 25.131)">
        <path id="Path_103" data-name="Path 103" d="M107.937,218.533c-.109-1.134-.365-2.931-.678-5.52-.509-4.206,1.192-6.616.833-7.01a3.625,3.625,0,0,1-1.3-3.795c-.93,1.546-2.778,4.486-3.125,7.424a27.316,27.316,0,0,0,.575,8.485C104.4,218.373,105.854,218.589,107.937,218.533Z" transform="translate(-103.545 -202.208)" fill="#0e9feb"/>
      </g>
      <g id="Group_48" data-name="Group 48" transform="translate(16.751 24.627)">
        <path id="Path_104" data-name="Path 104" d="M107.307,218.806h0c-1.31,0-2.914-.126-3.121-.478l-.012-.029a27.61,27.61,0,0,1-.578-8.522c.333-2.82,2-5.581,3-7.231l.411-.685-.07.519a3.544,3.544,0,0,0,1.258,3.7c.175.191.061.552-.145,1.205a13.077,13.077,0,0,0-.649,5.875c.13,1.078.251,2.02.355,2.833.145,1.132.259,2.027.323,2.691l.012.114-.116,0C107.743,218.8,107.52,218.806,107.307,218.806Zm-2.931-.578a6.613,6.613,0,0,0,2.93.362h0c.175,0,.356,0,.543-.007-.065-.648-.174-1.5-.31-2.567-.1-.814-.226-1.756-.356-2.834a13.272,13.272,0,0,1,.658-5.965c.145-.462.283-.9.2-.985a3.525,3.525,0,0,1-1.379-3.386,18.676,18.676,0,0,0-2.854,6.956A27.427,27.427,0,0,0,104.376,218.228Z" transform="translate(-103.472 -201.86)" fill="#fff"/>
      </g>
      <g id="Group_49" data-name="Group 49" transform="translate(19.347 26.25)">
        <path id="Path_105" data-name="Path 105" d="M106.226,217.607a23.377,23.377,0,0,1-.487-7.565c.372-2.215.581-3.147.669-3.545a2.267,2.267,0,0,0,.057-.293l-.138-.185a4.606,4.606,0,0,1-1.064-2.669c0-.019.214-.369.214-.369a4.4,4.4,0,0,0,1.023,2.909c.128.172.18.243.18.314a1.823,1.823,0,0,1-.062.341c-.088.4-.3,1.324-.667,3.532a23.1,23.1,0,0,0,.484,7.481Z" transform="translate(-105.264 -202.98)" fill="#fd0"/>
      </g>
      <path id="Path_106" data-name="Path 106" d="M106.031,205.7a.45.45,0,1,1-.451-.451A.45.45,0,0,1,106.031,205.7Z" transform="translate(-85.977 -175.712)" fill="#fd0"/>
      <ellipse id="Ellipse_7" data-name="Ellipse 7" cx="0.449" cy="0.449" rx="0.449" ry="0.449" transform="translate(18.551 31.99)" fill="#fd0"/>
      <path id="Path_107" data-name="Path 107" d="M105.448,209.121a.449.449,0,1,1-.449-.449A.45.45,0,0,1,105.448,209.121Z" transform="translate(-86.238 -174.175)" fill="#fd0"/>
      <ellipse id="Ellipse_8" data-name="Ellipse 8" cx="0.449" cy="0.449" rx="0.449" ry="0.449" transform="translate(18.497 37.315)" fill="#fd0"/>
      <g id="Group_50" data-name="Group 50" transform="translate(18.389 37.207)">
        <path id="Path_108" data-name="Path 108" d="M105.161,211.658a.558.558,0,1,1,.558-.558A.559.559,0,0,1,105.161,211.658Zm0-.9a.342.342,0,1,0,.342.342A.343.343,0,0,0,105.161,210.758Z" transform="translate(-104.603 -210.542)" fill="#fff"/>
      </g>
      <g id="Group_51" data-name="Group 51" transform="translate(19.047 29.429)">
        <path id="Path_109" data-name="Path 109" d="M105.613,206.288a.557.557,0,1,1,.558-.556A.556.556,0,0,1,105.613,206.288Zm0-.9a.341.341,0,1,0,.342.342A.341.341,0,0,0,105.613,205.39Z" transform="translate(-105.057 -205.174)" fill="#fff"/>
      </g>
      <g id="Group_52" data-name="Group 52" transform="translate(18.444 31.882)">
        <path id="Path_110" data-name="Path 110" d="M105.2,207.981a.557.557,0,1,1,.558-.556A.557.557,0,0,1,105.2,207.981Zm0-.9a.342.342,0,1,0,.342.342A.341.341,0,0,0,105.2,207.083Z" transform="translate(-104.641 -206.867)" fill="#fff"/>
      </g>
      <g id="Group_53" data-name="Group 53" transform="translate(18.203 34.39)">
        <path id="Path_111" data-name="Path 111" d="M105.033,209.712a.557.557,0,1,1,.556-.558A.559.559,0,0,1,105.033,209.712Zm0-.9a.341.341,0,1,0,.342.34A.341.341,0,0,0,105.033,208.814Z" transform="translate(-104.475 -208.598)" fill="#fff"/>
      </g>
      <path id="Path_112" data-name="Path 112" d="M100.886,196.137c-.8,2.312-3.075,5.284.216,9.706,3.656,4.915,13.966,5.123,18.818,2.32a12.182,12.182,0,0,0,5.716-14.021,12.569,12.569,0,0,0-13.481-9.221c-6.364.593-9.54,3.451-10.3,5.932C101.348,192.513,101.131,195.426,100.886,196.137Z" transform="translate(-88.561 -184.863)" fill="#ffcb9d"/>
      <g id="Group_54" data-name="Group 54" transform="translate(31.096 13.98)">
        <path id="Path_113" data-name="Path 113" d="M114.166,198.924a.959.959,0,0,1-.793-.3l.171-.13c.2.262.787.287,1.432.062a2.657,2.657,0,0,0,1.934-2.4,1.3,1.3,0,0,0-1.059-1.4,2.011,2.011,0,0,0-2.133.981l-.2-.09a2.24,2.24,0,0,1,2.372-1.1,1.529,1.529,0,0,1,1.232,1.6,2.872,2.872,0,0,1-2.079,2.6A2.712,2.712,0,0,1,114.166,198.924Z" transform="translate(-113.373 -194.511)" fill="#fff"/>
      </g>
      <path id="Path_114" data-name="Path 114" d="M118.231,214.2c-1.8-2.507-7.117-3.18-11.309-1.756-4.093,1.391-7.566,5.32-7.547,11.5.091.719,5.987,2.308,6.633,1.729s2.889-1.978,7.621-.578C116.624,225.988,119.138,215.468,118.231,214.2Z" transform="translate(-88.561 -172.81)" fill="#3d4865"/>
      <path id="Path_115" data-name="Path 115" d="M100.551,221.14c-.987.22-3.685,1.285-4.116,3.567.109.665,5.788.359,7.172.342a2.619,2.619,0,0,0,2.23-2.553C105.764,221.634,101.166,221,100.551,221.14Z" transform="translate(-89.881 -168.587)" fill="#f56038"/>
      <g id="Group_55" data-name="Group 55" transform="translate(10.33 51.125)">
        <path id="Path_116" data-name="Path 116" d="M99.525,220.165c-.125-.143-.449.665-.484,1.24.035.287,1.755,1.008,3.94,1.4,1.726.306,2.37.293,2.586.112s.636-.853.452-.946c-.1-.049-1.823-.3-3.47-.74A18.156,18.156,0,0,1,99.525,220.165Z" transform="translate(-99.041 -220.148)" fill="#fff"/>
      </g>
      <g id="Group_56" data-name="Group 56" transform="translate(10.221 51.017)">
        <path id="Path_117" data-name="Path 117" d="M104.993,223.183a12.816,12.816,0,0,1-2-.242c-2.02-.358-3.979-1.081-4.029-1.489.028-.472.29-1.378.559-1.378a.154.154,0,0,1,.116.054,20.173,20.173,0,0,0,2.967,1.027c1.113.294,2.243.5,2.918.627a4.055,4.055,0,0,1,.575.12.194.194,0,0,1,.1.158,1.736,1.736,0,0,1-.535.969A1.068,1.068,0,0,1,104.993,223.183ZM99.517,220.3a2.921,2.921,0,0,0-.335,1.146,9.785,9.785,0,0,0,3.853,1.281c1.507.268,2.294.307,2.5.136a1.7,1.7,0,0,0,.459-.769c-.068-.017-.271-.055-.5-.1-.678-.125-1.813-.333-2.934-.632A18.878,18.878,0,0,1,99.517,220.3Z" transform="translate(-98.966 -220.074)" fill="#323a52"/>
      </g>
      <path id="Path_118" data-name="Path 118" d="M113.7,218.269c-.719,1.589-3.493,1.863-3.438,5.116.9.622,5.1.007,5.736-.568,1.082-.985.4-2.411,1.048-3.729C117.891,217.227,114.463,216.588,113.7,218.269Z" transform="translate(-83.673 -170.304)" fill="#ffcb9d"/>
      <path id="Path_119" data-name="Path 119" d="M113.647,203.332c4.073-1.555,8.338,4.31,8.333,10.467-.006,4.919-3.774,10.958-4.368,11.724-.269.493-4.619-.326-4.512-1.2a30.693,30.693,0,0,0-.99-10.064C110.655,208.767,110.547,204.515,113.647,203.332Z" transform="translate(-83.285 -176.685)" fill="#0e9feb"/>
      <g id="Group_57" data-name="Group 57" transform="translate(27.626 26.177)">
        <path id="Path_120" data-name="Path 120" d="M117.053,225.956c-1.027,0-3.344-.472-3.94-1.146a.564.564,0,0,1-.161-.448,30.811,30.811,0,0,0-.985-9.983c-1.73-6.533-1.2-10.086,1.669-11.181a3.984,3.984,0,0,1,1.43-.268,5.362,5.362,0,0,1,3.728,1.782,13.485,13.485,0,0,1,3.467,9.154c-.006,4.987-3.8,11.054-4.4,11.846C117.751,225.881,117.5,225.956,117.053,225.956Zm-1.986-22.594a3.552,3.552,0,0,0-1.276.239c-2.623,1-3.069,4.39-1.405,10.668a30.522,30.522,0,0,1,1,10.145.175.175,0,0,0,.057.11,7.1,7.1,0,0,0,3.616,1,1.1,1.1,0,0,0,.448-.056l.006-.009c.567-.732,4.318-6.7,4.324-11.593a13.026,13.026,0,0,0-3.34-8.848A4.942,4.942,0,0,0,115.067,203.362Z" transform="translate(-110.979 -202.93)" fill="#fff"/>
      </g>
      <path id="Path_121" data-name="Path 121" d="M108.861,202.415c-1.217-.033-2.172-.1-2.908-.183-.038.064-.08.135-.122.2.752.084,1.743.158,3.024.193.158,0,.314.007.469.007a21,21,0,0,0,5.462-.766c.212-.132.411-.265.6-.4A20.574,20.574,0,0,1,108.861,202.415Z" transform="translate(-85.663 -177.41)" fill="#fff"/>
    </g>
  </g>
</svg>
