<svg xmlns="http://www.w3.org/2000/svg" width="38.329" height="68.142" viewBox="0 0 38.329 68.142">
  <g id="Group_672" data-name="Group 672" transform="translate(28.769 -281.081)">
    <g id="Group_664" data-name="Group 664" transform="translate(-28.769 281.081)">
      <path id="Path_628" data-name="Path 628" d="M9.56,270.523a4.8,4.8,0,0,0-4.541-4.394H-24.224a4.807,4.807,0,0,0-4.545,4.394v59.351a4.811,4.811,0,0,0,4.545,4.4H5.019a4.806,4.806,0,0,0,4.541-4.4Z" transform="translate(28.769 -266.129)" fill="#5c6d6d"/>
      <rect id="Rectangle_876" data-name="Rectangle 876" width="36.2" height="66.014" rx="0.986" transform="translate(1.065 1.063)" fill="#212528"/>
      <path id="Path_629" data-name="Path 629" d="M-20.682,266.991a1.067,1.067,0,0,1,1.067,1.067,1.066,1.066,0,0,1-1.067,1.063,1.062,1.062,0,0,1-1.063-1.063A1.063,1.063,0,0,1-20.682,266.991Z" transform="translate(52.09 -263.267)" fill="#94989b"/>
      <path id="Path_630" data-name="Path 630" d="M-18.687,267.654c0,.294-.138.531-.315.531h-5.75c-.177,0-.32-.238-.32-.531s.143-.531.32-.531H-19C-18.825,267.123-18.687,267.361-18.687,267.654Z" transform="translate(41.044 -262.829)" fill="#94989b"/>
      <rect id="Rectangle_877" data-name="Rectangle 877" width="31.943" height="51.107" transform="translate(3.195 8.517)" fill="#3e4347"/>
      <rect id="Rectangle_878" data-name="Rectangle 878" width="7.986" height="3.195" rx="0.185" transform="translate(15.173 61.753)" fill="#94989b"/>
    </g>
    <g id="Group_667" data-name="Group 667" transform="translate(-22.172 300.302)">
      <path id="Path_631" data-name="Path 631" d="M-3.567,281.34c0-7.318-5.167-10.762-10.762-10.762s-10.757,3.443-10.757,10.762a2.036,2.036,0,0,0-2.156,2.151,2.036,2.036,0,0,0,2.156,2.152c0,2.869,3.011,6.886,10.757,6.886s10.762-4.018,10.762-6.886a2.035,2.035,0,0,0,2.151-2.152A2.035,2.035,0,0,0-3.567,281.34Z" transform="translate(27.242 -270.578)" fill="#fed0ac"/>
      <path id="Path_632" data-name="Path 632" d="M-18.529,276.173a2.421,2.421,0,0,1-.864-3.011s3.443,2.152,6.459,1.292c0,0-1.724-.432-2.151-1.719a6.434,6.434,0,0,0,3.011,0,10.94,10.94,0,0,0-6.878-2.156,10.966,10.966,0,0,0-6.9,2.156C-24.123,274.885-22.4,276.168-18.529,276.173Z" transform="translate(31.874 -270.578)" fill="#dbb471"/>
      <g id="Group_665" data-name="Group 665" transform="translate(18.078 13.773)" opacity="0.5" style="isolation: isolate">
        <path id="Path_633" data-name="Path 633" d="M-17.906,275.222c-.156-1.037-1.43-1.659-2.847-1.4s-2.441,1.322-2.29,2.359,1.426,1.659,2.847,1.4S-17.755,276.259-17.906,275.222Z" transform="translate(23.057 -273.766)" fill="#ff717f"/>
      </g>
      <g id="Group_666" data-name="Group 666" transform="translate(2.585 13.773)" opacity="0.5" style="isolation: isolate">
        <path id="Path_634" data-name="Path 634" d="M-23.785,273.826c-1.417-.264-2.691.359-2.843,1.4s.868,2.091,2.29,2.359,2.687-.358,2.843-1.4S-22.368,274.094-23.785,273.826Z" transform="translate(26.644 -273.766)" fill="#ff717f"/>
      </g>
      <path id="Path_635" data-name="Path 635" d="M-20.551,275.27a2.8,2.8,0,0,1-2.8,2.8,2.8,2.8,0,0,1-2.8-2.8,2.8,2.8,0,0,1,2.8-2.8A2.8,2.8,0,0,1-20.551,275.27Z" transform="translate(30.881 -264.293)" fill="#fff"/>
      <path id="Path_636" data-name="Path 636" d="M-24.011,272.67a1.939,1.939,0,0,1,1.935,1.94,1.938,1.938,0,0,1-1.935,1.935,1.935,1.935,0,0,1-1.935-1.935A1.936,1.936,0,0,1-24.011,272.67Z" transform="translate(31.545 -263.632)" fill="#664e27"/>
      <path id="Path_637" data-name="Path 637" d="M-24.356,273.617a.645.645,0,0,1-.644.644.646.646,0,0,1-.648-.644.647.647,0,0,1,.648-.648A.646.646,0,0,1-24.356,273.617Z" transform="translate(32.534 -262.639)" fill="#231f20"/>
      <path id="Path_638" data-name="Path 638" d="M-18.06,275.27a2.8,2.8,0,0,1-2.8,2.8,2.794,2.794,0,0,1-2.8-2.8,2.8,2.8,0,0,1,2.8-2.8A2.8,2.8,0,0,1-18.06,275.27Z" transform="translate(39.152 -264.293)" fill="#fff"/>
      <path id="Path_639" data-name="Path 639" d="M-21.521,272.67a1.94,1.94,0,0,1,1.94,1.94,1.939,1.939,0,0,1-1.94,1.935,1.938,1.938,0,0,1-1.935-1.935A1.939,1.939,0,0,1-21.521,272.67Z" transform="translate(39.812 -263.632)" fill="#664e27"/>
      <path id="Path_640" data-name="Path 640" d="M-22.513,272.969a.647.647,0,0,1,.648.648.646.646,0,0,1-.648.644.645.645,0,0,1-.644-.644A.646.646,0,0,1-22.513,272.969Z" transform="translate(40.805 -262.639)" fill="#231f20"/>
      <path id="Path_641" data-name="Path 641" d="M-12.838,276.57c0,3.6-2.89,5.266-6.454,5.266s-6.454-1.668-6.454-5.266,2.907-2.052,6.472-2.052S-12.838,272.971-12.838,276.57Z" transform="translate(32.206 -258.594)" fill="#61c2ff"/>
      <path id="Path_642" data-name="Path 642" d="M-22.268,274.563a2.4,2.4,0,0,1,2.583,2.152,2.4,2.4,0,0,1-2.583,2.151,2.4,2.4,0,0,1-2.583-2.151A2.4,2.4,0,0,1-22.268,274.563Z" transform="translate(35.181 -257.347)" fill="#6235a8"/>
      <path id="Path_643" data-name="Path 643" d="M-20.614,280.286a3.337,3.337,0,0,1-3.577-3.059c0-1.814,1.719-1.374,3.577-1.374s3.577-.441,3.577,1.374A3.334,3.334,0,0,1-20.614,280.286Zm0-5.314c-2.614,0-4.735-.3-4.735,2.255a4.681,4.681,0,0,0,4.735,4.623,4.681,4.681,0,0,0,4.735-4.623C-15.879,274.674-18,274.972-20.614,274.972Z" transform="translate(33.527 -256.024)" fill="#fbbf67"/>
      <path id="Path_644" data-name="Path 644" d="M-21.208,276.517a.484.484,0,0,1-.471.5h-2.506a.48.48,0,0,1-.467-.5v-1.158a.483.483,0,0,1,.467-.5h2.506a.486.486,0,0,1,.471.5Z" transform="translate(35.845 -256.354)" fill="#42ade2"/>
      <path id="Path_645" data-name="Path 645" d="M-22.6,275.158c-1.8,0-2.7-1.292-1.8-1.292H-20.8C-19.9,273.866-20.8,275.158-22.6,275.158Z" transform="translate(35.512 -259.661)" fill="#e0a372"/>
    </g>
  </g>
</svg>
