<svg xmlns="http://www.w3.org/2000/svg" width="72.356" height="87.129" viewBox="0 0 72.356 87.129">
  <g id="Kids" transform="translate(-918.087 -723.5)">
    <g id="Group_39" data-name="Group 39" transform="translate(918.087 734.192)">
      <g id="Group_29" data-name="Group 29" transform="translate(0 0)">
        <g id="Group_21" data-name="Group 21" transform="translate(1.466 8.87)">
          <path id="Path_49" data-name="Path 49" d="M230.332,383.216c-1.956,0-5.405-.439-6.815-3.345-1.458-3.005-.4-4.7.618-6.329a5.656,5.656,0,0,0,1.206-3.345,7.3,7.3,0,0,1,3.934-6.934l.157.314a6.946,6.946,0,0,0-3.741,6.6,6.01,6.01,0,0,1-1.26,3.548c-1.014,1.625-1.972,3.16-.6,5.991,1.9,3.914,7.8,3.078,7.861,3.069l.053.346A10.827,10.827,0,0,1,230.332,383.216Z" transform="translate(-222.8 -363.263)" fill="#e3884f"/>
        </g>
        <path id="Path_50" data-name="Path 50" d="M229.588,363.2a7.989,7.989,0,0,0-3.355,7.5c.292,2.917-3.355,4.2-2.093,8.114,1.528,4.744,8.485,4.139,9.421,3.006s5.811-2.315,4.116-6.746S229.588,363.2,229.588,363.2Z" transform="translate(-221.566 -354.38)" fill="#e3884f"/>
        <path id="Path_51" data-name="Path 51" d="M238.574,442.162c-.868.424-3.655,1.163-3.877,2.584.2.407,5.336.037,5.982-.147s.646-1.126.074-2.437A2.558,2.558,0,0,0,238.574,442.162Z" transform="translate(-223.905 -371.395)" fill="#3d3d3d"/>
        <path id="Path_52" data-name="Path 52" d="M245.815,442.162c.868.424,3.656,1.163,3.877,2.584-.2.407-5.336.037-5.981-.147s-.647-1.126-.074-2.437A2.556,2.556,0,0,1,245.815,442.162Z" transform="translate(-225.747 -371.395)" fill="#3d3d3d"/>
        <path id="Path_53" data-name="Path 53" d="M237.97,433.266c.433,2.1,1.048,5.476,1.311,6.979.077.437,2.142.369,2.179,0,.037-1.551.184-6.893.184-6.893S237.862,432.739,237.97,433.266Z" transform="translate(-224.612 -369.478)" fill="#ffcb9d"/>
        <path id="Path_54" data-name="Path 54" d="M246.951,433.193c-.321,2.388-.72,4.991-1.1,7.04-.081.437-2.141.369-2.178,0-.038-1.551-.292-6.844-.292-6.844S247.022,432.66,246.951,433.193Z" transform="translate(-225.782 -369.467)" fill="#ffcb9d"/>
        <path id="Path_55" data-name="Path 55" d="M236.005,384.1a8.818,8.818,0,0,0-6.245,6.277c-.923,3.878.286,7.754,3,8.013s3.282-7.976,3.24-9.859S236.005,384.1,236.005,384.1Z" transform="translate(-222.772 -358.896)" fill="#e8e8e8"/>
        <path id="Path_56" data-name="Path 56" d="M230.694,401.39c-7.034,3.631-11.333,16.729-9.229,20.643,1.22,2.141,10.173,4.7,16.672,4.7s15.076-3.717,16.425-5.816c1.481-2.308-1.855-15.8-11.242-19.874C236.857,400.131,233.234,400.079,230.694,401.39Z" transform="translate(-220.929 -362.416)" fill="#ffba00"/>
        <g id="Group_22" data-name="Group 22" transform="translate(8.887 24.191)">
          <path id="Path_57" data-name="Path 57" d="M237.616,383.359a8.468,8.468,0,0,0-5.143,6.81c-.517,4.579,0,6.906.887,7.644s4.172,1.883,7.939,1.255,4.25-1.6,4.472-1.824c.332-.775,4.6-10.026,2.444-11.573a22.516,22.516,0,0,0-6.528-2.666A6.348,6.348,0,0,0,237.616,383.359Z" transform="translate(-232.267 -382.809)" fill="#fff"/>
        </g>
        <g id="Group_24" data-name="Group 24" transform="translate(8.772 24.052)">
          <g id="Group_23" data-name="Group 23">
            <path id="Path_58" data-name="Path 58" d="M239.057,399.328h0a10.556,10.556,0,0,1-5.8-1.464c-1.062-.885-1.391-3.636-.927-7.747.582-5.161,5.455-6.994,5.5-7.011l.152-.053a5.885,5.885,0,0,1,2.088-.422,6.332,6.332,0,0,1,1.614.223l.02.006a20.035,20.035,0,0,1,6.547,2.678c1.745,1.249-.292,6.941-2.308,11.5l-.1.218-.009.02-.016.016c-.019.02-.039.045-.065.075-.277.33-1.016,1.207-4.47,1.782A13.582,13.582,0,0,1,239.057,399.328Zm1.013-16.464a5.6,5.6,0,0,0-2.011.408l-.153.053a8.734,8.734,0,0,0-5.349,6.818c-.448,3.971-.14,6.72.845,7.54a10.311,10.311,0,0,0,5.654,1.41h0a13.376,13.376,0,0,0,2.19-.18c3.37-.562,4.067-1.391,4.33-1.7.023-.028.044-.053.063-.072l.089-.2c2.759-6.235,3.629-10.322,2.386-11.212a19.816,19.816,0,0,0-6.47-2.642l-.02-.005A6.122,6.122,0,0,0,240.07,382.865Z" transform="translate(-232.12 -382.631)" fill="#f56038"/>
          </g>
        </g>
        <path id="Path_59" data-name="Path 59" d="M248.056,389.653c.271-2.424,1.033-3.761,1.811-4.233.628-.382,4.69,1.575,5.576,6.3A9.474,9.474,0,0,1,252.6,399.9a22.141,22.141,0,0,0-3.432-2.1A21.294,21.294,0,0,1,248.056,389.653Z" transform="translate(-226.779 -359.172)" fill="#e8e8e8"/>
        <g id="Group_26" data-name="Group 26" transform="translate(21.094 26.084)">
          <g id="Group_25" data-name="Group 25">
            <path id="Path_60" data-name="Path 60" d="M252.573,400.017l-.074-.055a19.772,19.772,0,0,0-2.967-1.852l-.451-.241-.038-.02-.016-.04a21.241,21.241,0,0,1-1.12-8.2c.243-2.171.923-3.746,1.866-4.32a.529.529,0,0,1,.277-.064c1.028,0,4.629,1.938,5.474,6.443a9.624,9.624,0,0,1-2.881,8.291Zm-3.342-2.333.412.22a19.85,19.85,0,0,1,2.921,1.815,9.378,9.378,0,0,0,2.732-8.009c-.807-4.3-4.3-6.253-5.244-6.253a.3.3,0,0,0-.156.03c-.417.254-1.423,1.166-1.756,4.147A21.344,21.344,0,0,0,249.231,397.684Z" transform="translate(-247.84 -385.224)" fill="#f56038"/>
          </g>
        </g>
        <path id="Path_61" data-name="Path 61" d="M231.4,364.281c-1.039,2.406-1.329,8.32,2.167,10.142a7.952,7.952,0,0,0,9.471-1.757c1.871-2.265,3.429-7.055.327-9.222S233.127,360.293,231.4,364.281Z" transform="translate(-223.043 -354.023)" fill="#ffcb9d"/>
        <path id="Path_62" data-name="Path 62" d="M239.339,378.395a13.087,13.087,0,0,1-.295,3.452c-.85.942-1.163,1.884-.277,2.272s3.785-1.293,4.21-2.345c-.278-.332.018-4.357.092-4.634S239.339,378.395,239.339,378.395Z" transform="translate(-224.67 -357.385)" fill="#ffcb9d"/>
        <path id="Path_63" data-name="Path 63" d="M229.749,356.673c-.941,2.745.5,7.707,5.032,7.461s5.12-1.773,6.2-1.527,3.581,3.38,1.513,6.679-3.975,8.535.85,11.193,12.828-1.181,13.749-8.961-3.607-13.244-7-15.016-4.323-1.053-6.116-2.462c-1.815-1.426-3.357-1.115-5.4-.64C236.993,353.771,231.828,350.613,229.749,356.673Z" transform="translate(-222.776 -352.153)" fill="#e3884f"/>
        <g id="Group_27" data-name="Group 27" transform="translate(8.504 2.097)">
          <path id="Path_64" data-name="Path 64" d="M246.805,380.552a4.759,4.759,0,0,1-3.88-2.3c-1.127-2.055-.712-5.354,1.169-9.287,1.56-3.264-.114-5.293-.905-6.014-1.046-.952-2.221-1.256-2.571-1.046-1.735,1.039-4.373,1.712-6.353.872a3.945,3.945,0,0,1-2.326-2.933,4.1,4.1,0,0,1,.865-4,4.2,4.2,0,0,1,3.739-1.138l-.066.343a3.839,3.839,0,0,0-3.421,1.038,3.769,3.769,0,0,0-.777,3.682,3.612,3.612,0,0,0,2.121,2.69c1.867.792,4.377.144,6.037-.85.586-.351,1.953.147,2.986,1.088.85.774,2.646,2.948.984,6.424-1.83,3.828-2.248,7.013-1.177,8.967a4.429,4.429,0,0,0,3.615,2.126Z" transform="translate(-231.778 -354.622)" fill="#fff"/>
        </g>
        <g id="Group_28" data-name="Group 28" transform="translate(5.866)">
          <path id="Path_65" data-name="Path 65" d="M233.989,364.47a6.6,6.6,0,0,1-2.711-.529c-2.552-1.151-3.621-5.03-2.289-8.3a5.5,5.5,0,0,1,6.327-3.581c.777.159,1.341.293,1.753.391a2.035,2.035,0,0,0,1.708.071,4.93,4.93,0,0,1,3.893.056,5,5,0,0,1,1.758,1.339,4.847,4.847,0,0,0,2.919,1.665l-.081.341a5.21,5.21,0,0,1-3.095-1.768,4.551,4.551,0,0,0-5.282-1.3,3.52,3.52,0,0,1-.415.125,3.475,3.475,0,0,1-1.486-.187c-.41-.1-.971-.231-1.742-.389a5.156,5.156,0,0,0-5.932,3.369c-1.265,3.106-.28,6.774,2.108,7.851,2.3,1.037,6.224.338,8.749-1.558l.21.28A11.307,11.307,0,0,1,233.989,364.47Z" transform="translate(-228.413 -351.947)" fill="#e3884f"/>
        </g>
      </g>
    </g>
    <g id="Group_64" data-name="Group 64" transform="translate(965.032 723.5)">
      <g id="Group_63" data-name="Group 63" transform="translate(0 0)">
        <path id="Path_138" data-name="Path 138" d="M249.807,137.86a.849.849,0,0,1-.5-.2,1.235,1.235,0,0,1-.434-.911c-.038-.262-.068-.426-.2-.509a1.312,1.312,0,0,0-.482-.093c-.546-.047-1.371-.119-1.429-1.249-.041-.8-.081-.877-.236-.877a6.446,6.446,0,0,0-1.476.468l-.311.118a7.069,7.069,0,0,1-2.425.429c-2.541,0-4.127-1.383-4.241-3.7v-.018a2.088,2.088,0,0,1,.4-1.2c.142-.211.16-.237.025-.414-.863-1.123-.831-2.812.086-4.516a4.268,4.268,0,0,1,3.664-2.528,3.553,3.553,0,0,1,2.774,1.4,1.025,1.025,0,0,0,.836.464,2.343,2.343,0,0,0,.639-.126,2.257,2.257,0,0,1,.626-.124c.419,0,.717.249.936.782.38.924.6.969.955.969.081,0,.168,0,.263-.009.119-.006.254-.012.4-.012s.282.006.42.018c1.752.15,2.356,1.91,2.725,4.508a6.94,6.94,0,0,1-1.823,5.948C250.558,137.395,250.246,137.86,249.807,137.86Zm-3.281-4.222c.558,0,.583.495.622,1.243.041.794.521.835,1.076.883a1.486,1.486,0,0,1,.656.152.994.994,0,0,1,.374.781.882.882,0,0,0,.28.655.505.505,0,0,0,.273.122c.249,0,.564-.576.867-1.2l.016-.033.028-.025a6.652,6.652,0,0,0,1.728-5.634c-.412-2.894-1.077-4.065-2.375-4.176-.127-.011-.254-.016-.387-.016s-.272.006-.386.011-.195.009-.282.009c-.626,0-.932-.282-1.313-1.208-.2-.477-.4-.542-.578-.542a2,2,0,0,0-.517.108,2.646,2.646,0,0,1-.749.142,1.428,1.428,0,0,1-1.137-.607,3.172,3.172,0,0,0-2.474-1.255,3.9,3.9,0,0,0-3.323,2.324c-.842,1.566-.887,3.1-.12,4.1a.62.62,0,0,1-.011.866,1.7,1.7,0,0,0-.335.992c.152,3,2.746,3.324,3.854,3.324a6.667,6.667,0,0,0,2.289-.4l.311-.118A5.966,5.966,0,0,1,246.526,133.638Z" transform="translate(-232.074 -122.662)" fill="#e3884f"/>
        <path id="Path_139" data-name="Path 139" d="M235.62,218.832c-.565.362-4.346,1.235-4.44,3.474.107.335,4.159.054,5.782,0s2.186-.429,2.307-1.3a6.536,6.536,0,0,0-.389-2.374A5.711,5.711,0,0,0,235.62,218.832Z" transform="translate(-231.18 -135.462)" fill="#3d3d3d"/>
        <path id="Path_140" data-name="Path 140" d="M250.916,218.974c.564.361,4.346,1.234,4.44,3.474-.107.335-4.159.054-5.782,0s-2.186-.43-2.307-1.3a6.519,6.519,0,0,1,.389-2.375A5.711,5.711,0,0,1,250.916,218.974Z" transform="translate(-233.326 -135.481)" fill="#3d3d3d"/>
        <path id="Path_142" data-name="Path 142" d="M235.545,176.792c-.774,1.819-2.381,12.135-1.993,19.032a139.425,139.425,0,0,0,2.17,17.219c.3.3,3.539.308,3.589-.228-.276-6.164.5-15.315,2.083-20.659.635-2.137,1.888-2.533,2.8.05,1.337,3.805,1.472,20.079,1.472,20.831.054.483,2.855.6,3.175-.1,3.031-8.319,3.864-19.967,4.239-24.313s.333-10.431-.907-12C248.787,174.963,236.607,174.3,235.545,176.792Z" transform="translate(-231.489 -129.673)" fill="#3d4865"/>
        <path id="Path_143" data-name="Path 143" d="M237.7,163.442c.017-4.151,2.722-9.6,2.189-9.523s-5.042,4.013-6.244,9.889.316,10.918,2.147,12.219a2.741,2.741,0,0,0,1.436-2.151C237.283,172.748,237.692,165.541,237.7,163.442Z" transform="translate(-231.452 -126.858)" fill="#00b8ad"/>
        <path id="Path_144" data-name="Path 144" d="M241.626,152.045c-1.476.7-3.023,2.9-3.456,3.595a21.334,21.334,0,0,0-1.6,5.8c-.341,2.415-1.9,5.674-1.167,9.456.475,2.46,1.469,3.53,4.635,4.227s10.3-.161,11.7-1.341,1.931-5.152,1.878-9.391.126-8.1-.9-9.5a11.688,11.688,0,0,0-4.651-3.514C245.677,150.167,243.1,151.348,241.626,152.045Z" transform="translate(-231.719 -126.428)" fill="#00b8ad"/>
        <path id="Path_145" data-name="Path 145" d="M252.171,161.926c0-.111,0-.37-2.329-.37s-2.329.259-2.329.37v2.4a1.916,1.916,0,0,0,1.913,1.913h.832a1.915,1.915,0,0,0,1.913-1.913Zm-4.4.048a13.529,13.529,0,0,1,4.141,0v1c-.492-.051-1.249-.081-2.071-.081s-1.579.03-2.071.081Zm2.487,4.009h-.832a1.657,1.657,0,0,1-1.655-1.655v-1.093c.482-.053,1.242-.083,2.071-.083s1.59.03,2.072.083v1.093A1.657,1.657,0,0,1,250.258,165.983Z" transform="translate(-233.362 -127.858)" fill="#fff"/>
        <path id="Path_149" data-name="Path 149" d="M243.548,175.79a130.464,130.464,0,0,1,1.612-21.762l.254.048a130.069,130.069,0,0,0-1.607,21.714Z" transform="translate(-232.832 -126.852)" fill="#fff"/>
        <path id="Path_150" data-name="Path 150" d="M244.185,159.618a.453.453,0,1,1-.452-.452A.453.453,0,0,1,244.185,159.618Z" transform="translate(-232.796 -127.538)" fill="#fff"/>
        <path id="Path_151" data-name="Path 151" d="M243.716,163.7a.453.453,0,1,1-.452-.452A.453.453,0,0,1,243.716,163.7Z" transform="translate(-232.734 -128.084)" fill="#fff"/>
        <path id="Path_152" data-name="Path 152" d="M243.416,168.409a.453.453,0,1,1-.452-.453A.453.453,0,0,1,243.416,168.409Z" transform="translate(-232.694 -128.712)" fill="#fff"/>
        <path id="Path_153" data-name="Path 153" d="M243.2,173.506a.453.453,0,1,1-.453-.453A.453.453,0,0,1,243.2,173.506Z" transform="translate(-232.665 -129.393)" fill="#fff"/>
        <path id="Path_154" data-name="Path 154" d="M255.25,155.632c.441,0,4.292,3.92,4.212,10.735s-3.415,10.077-4.38,10.861c-.617.146-1.583-1.39-1.414-1.994.251-.9,1.08-2.72.937-8.947C254.444,159.257,254.928,155.632,255.25,155.632Z" transform="translate(-234.181 -127.066)" fill="#00b8ad"/>
        <path id="Path_155" data-name="Path 155" d="M254.977,177.346c-.38,0-.74-.4-.921-.639a2.173,2.173,0,0,1-.533-1.528c.028-.1.062-.209.1-.334.311-.989.957-3.046.831-8.576-.141-6.161.212-10.29.634-10.723a.193.193,0,0,1,.139-.063c.176,0,.483.275.71.5a14.78,14.78,0,0,1,3.63,10.361c-.083,7.077-3.7,10.37-4.427,10.958l-.023.019-.029.006A.5.5,0,0,1,254.977,177.346Zm.278-21.595c-.267.4-.693,3.852-.541,10.511.127,5.572-.529,7.657-.843,8.66-.039.122-.073.23-.1.326a1.957,1.957,0,0,0,.49,1.3c.268.353.55.558.745.535.764-.629,4.225-3.858,4.306-10.741a15.894,15.894,0,0,0-1.859-7.794A8.085,8.085,0,0,0,255.255,155.752Z" transform="translate(-234.161 -127.046)" fill="#fff"/>
        <path id="Path_156" data-name="Path 156" d="M238.752,131.01a3.425,3.425,0,0,0-1.307,4.945c-.6.121-1.6,3.622.814,5.634,2.978.443,3.159-7.119,2.766-9.154A1.705,1.705,0,0,0,238.752,131.01Z" transform="translate(-231.92 -123.766)" fill="#e3884f"/>
        <path id="Path_157" data-name="Path 157" d="M239.852,133.139c-2.017,2.706-4.185,9.981.242,12.556a8.321,8.321,0,0,0,11.591-2.817c2.053-3.743,1.73-6.721-.885-8.371S241.5,130.926,239.852,133.139Z" transform="translate(-232.025 -123.928)" fill="#ffcb9d"/>
        <path id="Path_158" data-name="Path 158" d="M250,139.229a.6.6,0,0,1-.334-.1,1.131,1.131,0,0,1-.418-1.028c-.012-.393-.042-.506-.234-.549l-.122-.027c-.508-.106-1.451-.3-1.4-1.424.031-.669-.056-1.07-.268-1.226s-.608-.124-1.217.1c-3.187,1.145-5.851.857-7.126-.773l.3-.238c1.168,1.492,3.668,1.734,6.69.647.761-.274,1.248-.287,1.579-.043s.463.725.425,1.556c-.035.732.474.9,1.091,1.027l.129.028c.51.116.524.578.535.915.01.353.032.577.244.718a.21.21,0,0,0,.19.029c.232-.073.507-.459.735-1.034l.36.143c-.282.712-.621,1.148-.978,1.26A.63.63,0,0,1,250,139.229Z" transform="translate(-232.209 -124.171)" fill="#e3884f"/>
        <path id="Path_159" data-name="Path 159" d="M243.688,148.71a3.745,3.745,0,0,1-1.074,2.951c1.5,1.8,4.32,2.039,6.439-.671a3.473,3.473,0,0,1-.751-2.978C247.363,147.8,243.688,148.71,243.688,148.71Z" transform="translate(-232.707 -126.044)" fill="#ffcb9d"/>
        <path id="Path_160" data-name="Path 160" d="M243.34,133.482c-2.5.443-5.967-1.218-4.7-3.324.19-.316-.13-.49-.5-1.274a4.706,4.706,0,0,1,1.972-4.913,2.98,2.98,0,0,1,4.372.555c.551.69,1.213.537,1.948.434.966-.136,1.125.8,1.57,1.44.5.717,3.492-.536,4.256,1.677s.845,2.032,1.573,2.416c1.372.723,1.673,1.717,1.143,3.271-.719,2.1,1.421,2.158.625,5.272a2.914,2.914,0,0,1-2.507,2.432c-.4.161-.355,1.991-2.6,2.281-.688-.193-.23-3.828.736-3.747a1.51,1.51,0,0,0,1.046-2.415c-.845-.885-1.851.161-2.293.2s-.483-1.167-.4-2.012-1.73-.081-1.569-1.651S246.8,132.516,243.34,133.482Z" transform="translate(-232.091 -122.742)" fill="#e3884f"/>
        <path id="Path_161" data-name="Path 161" d="M237.234,175.187a6.057,6.057,0,0,1-2.111-5.136,20.627,20.627,0,0,1,.775-5.479,9.5,9.5,0,0,1,.328-1.068l1.656-7.178c-.079.336-.176.842-.23,1.122-.324,1.664-2.224,10.019-2.27,12.608a5.948,5.948,0,0,0,1.95,4.91Z" transform="translate(-231.707 -127.248)" fill="#fff"/>
        <path id="Path_162" data-name="Path 162" d="M251.167,137.266a.7.7,0,0,1-.417-.117,1.153,1.153,0,0,1-.333-.9c-.048-.538-.092-1.048-.83-1.168-1.028-.168-1.01-.79-1-1.289a1.157,1.157,0,0,0-.87-1.365,4.651,4.651,0,0,0-3.128.183,8.077,8.077,0,0,1-2.734.453,3.123,3.123,0,0,1-2.76-1.331,1.194,1.194,0,0,1,.07-1.235c.03-.044.061-.087.089-.126.255-.36.341-.481-.2-1.067a2.006,2.006,0,0,1-.431-1.475,4.646,4.646,0,0,1,1.67-3.122c1.633-1.45,3.492-.3,4.333.6l-.283.263c-.746-.8-2.383-1.829-3.793-.578a4.261,4.261,0,0,0-1.54,2.852,1.651,1.651,0,0,0,.331,1.193c.713.778.55,1.1.227,1.553l-.085.12a.808.808,0,0,0-.043.845,2.741,2.741,0,0,0,2.432,1.117,7.776,7.776,0,0,0,2.607-.438,4.944,4.944,0,0,1,3.376-.172,1.527,1.527,0,0,1,1.116,1.736c-.014.505-.021.783.672.9,1.035.17,1.1.948,1.153,1.516.023.276.047.535.169.621a.713.713,0,0,0,.532-.005l.1.374A1.742,1.742,0,0,1,251.167,137.266Z" transform="translate(-232.175 -122.842)" fill="#fff"/>
      </g>
    </g>
  </g>
</svg>
