<svg xmlns="http://www.w3.org/2000/svg" width="97.17" height="74.433" viewBox="0 0 97.17 74.433">
  <g id="Group_984" data-name="Group 984" transform="translate(41.358 -183.247)">
    <g id="Group_978" data-name="Group 978" transform="translate(-31.011 185.008)">
      <path id="Path_2056" data-name="Path 2056" d="M-2.527,184.655Z" transform="translate(89.35 -182.893)" fill="#fff"/>
      <path id="Path_2057" data-name="Path 2057" d="M47.037,187.988c-1.121-1.226-2.92-4.146-4.74-4.034l-68.5,6.656a4.228,4.228,0,0,0-2.88,1.757l-8.138,47c.581,1.109,3.966,4.932,5,5.122l66.889,12.039a6.015,6.015,0,0,0,4.9-1.324Z" transform="translate(37.223 -183.951)" fill="#fff"/>
    </g>
    <g id="Group_983" data-name="Group 983" transform="translate(-41.358 183.247)">
      <g id="Group_979" data-name="Group 979" transform="translate(9.947 1.273)">
        <path id="Path_2058" data-name="Path 2058" d="M-2.688,184.459Z" transform="translate(89.508 -182.699)" fill="#62727a"/>
        <path id="Path_2059" data-name="Path 2059" d="M46.877,187.793c-1.121-1.229-2.92-4.146-4.74-4.034l-68.5,6.656a4.228,4.228,0,0,0-2.883,1.757l-8.135,47c.578,1.111,3.966,4.935,5,5.125l66.891,12.036a6.018,6.018,0,0,0,4.9-1.324Z" transform="translate(37.383 -183.756)" fill="#62727a"/>
      </g>
      <g id="Group_980" data-name="Group 980" transform="translate(9.947)">
        <path id="Path_2060" data-name="Path 2060" d="M-3.7,183.247Z" transform="translate(87.993 -183.247)" fill="#dae4ea"/>
        <path id="Path_2061" data-name="Path 2061" d="M44.35,185.258a5.523,5.523,0,0,0-4.512-1.822l-68.731,4.444a4.228,4.228,0,0,0-2.883,1.757l-5.608,50.03a3.682,3.682,0,0,0,2.475,2.092L31.981,253.8a6.016,6.016,0,0,0,4.9-1.324Z" transform="translate(37.383 -182.981)" fill="#dae4ea"/>
      </g>
      <g id="Group_981" data-name="Group 981" transform="translate(0 25.759)">
        <path id="Path_2062" data-name="Path 2062" d="M-27.72,210.566c-.5.521-3.751.483-4.367.113-1.176-.706-9.524-10.675-2.275-13.618,5.483-2.23,6.7,2.82,7.274,3.253C-25.993,201.142-26.769,209.57-27.72,210.566Z" transform="translate(47.471 -189.102)" fill="#eba352"/>
        <path id="Path_2063" data-name="Path 2063" d="M-39.279,210.085c8.293.05,4.252,1.241,10.908,1.241,2.638,0,4.852-1.732,4.89-4.121l0-.04c-4.1-2.74,2.79-1.536,1.727-7.99-.353-2.15-2.617-2.315-5.615-2.565-2.542-.215-11.083,3.018-11.083,3.018C-41.531,200.708-42.7,210.067-39.279,210.085Z" transform="translate(41.358 -188.946)" fill="#ffdd67"/>
        <path id="Path_2064" data-name="Path 2064" d="M-28.785,196.177c-1.344-.931-7.62,1.514-7.62,1.514l3.876,9.757s13.641-.388,9.206-4.1C-27.051,200.223-26.938,197.456-28.785,196.177Z" transform="translate(48.799 -189.897)" fill="#ffdd67"/>
        <path id="Path_2065" data-name="Path 2065" d="M-25.089,199.079c1.064,2.615-8.528,3.068-9.854,3.121l.228.571S-22.111,202.41-25.089,199.079Z" transform="translate(50.996 -185.22)" fill="#eba352"/>
        <path id="Path_2066" data-name="Path 2066" d="M-33.375,198.318a12.71,12.71,0,0,1-2.345,2.988,4.861,4.861,0,0,0,2.718-2Z" transform="translate(49.828 -186.363)" fill="#eba352"/>
        <path id="Path_2067" data-name="Path 2067" d="M-34.258,198.108c-.711,0-.018,3.506-.811,4.449.2.616,1.436.263,1.436.263s-.4-4.279-.323-4.524Z" transform="translate(50.807 -186.679)" fill="#eba352"/>
        <path id="Path_2068" data-name="Path 2068" d="M-27.824,203.559l-.733.728s-6.531-6.026-8.338-7.232l2.127-.5Z" transform="translate(48.063 -189.009)" fill="#eba352"/>
        <path id="Path_2069" data-name="Path 2069" d="M-19.966,209.991l-2.069,2.056L-38.6,195.6l2.069-2.056Z" transform="translate(45.502 -193.541)" fill="#428bc1"/>
        <path id="Path_2070" data-name="Path 2070" d="M-31.98,202.17l4.654,2.568.707-.849-3.292-3.774Z" transform="translate(55.447 -183.664)" fill="#a9b5ae"/>
        <path id="Path_2071" data-name="Path 2071" d="M-36.844,204.451a3.606,3.606,0,0,1-.178-.8,2.964,2.964,0,0,1-.148-.465c-.455-2.037,7.324-3.391,7.324-3.391l.591-.145a5.841,5.841,0,0,1,5.966,1.677,2,2,0,0,1-1.331,3.361,26.442,26.442,0,0,0-8.013,2.017C-34.372,207.436-36.111,206.53-36.844,204.451Z" transform="translate(47.622 -184.683)" fill="#ffdd67"/>
        <path id="Path_2072" data-name="Path 2072" d="M-30.049,200.8c1.249-.408,3.253-1.524,5.808.746-2.407-2.923-6.248-1.429-6.4-1.406a9.95,9.95,0,0,1-6.021-.963C-35.907,201.006-31.818,201.369-30.049,200.8Z" transform="translate(48.416 -185.08)" fill="#eba352"/>
        <path id="Path_2073" data-name="Path 2073" d="M-28.737,203.825c-6.656,0-2.615-1.191-10.905-1.239-.738,0-1.306-.7-1.642-1.4.245,1.279.936,1.994,1.869,2,8.29.05,4.279,1.289,10.933,1.289,2.64,0,5.11-1.329,7.219-2.022A41.445,41.445,0,0,1-28.737,203.825Z" transform="translate(41.469 -182.048)" fill="#eba352"/>
      </g>
      <g id="Group_982" data-name="Group 982" transform="translate(68.573 4.752)">
        <path id="Path_2074" data-name="Path 2074" d="M-9.757,187.586a.58.58,0,0,1-.558.488h-1.949a.414.414,0,0,1-.42-.488l.275-1.952a.582.582,0,0,1,.556-.488H-9.9a.415.415,0,0,1,.418.488Z" transform="translate(15.855 -185.146)" fill="#42ade2"/>
        <path id="Path_2075" data-name="Path 2075" d="M-8.123,187.586a.578.578,0,0,1-.556.488h-1.949a.414.414,0,0,1-.42-.488l.275-1.952a.58.58,0,0,1,.556-.488h1.949a.415.415,0,0,1,.42.488Z" transform="translate(18.315 -185.146)" fill="#c7e755"/>
        <path id="Path_2076" data-name="Path 2076" d="M-6.486,187.586a.58.58,0,0,1-.556.488H-8.993a.414.414,0,0,1-.418-.488l.275-1.952a.58.58,0,0,1,.556-.488h1.949a.415.415,0,0,1,.42.488Z" transform="translate(20.774 -185.146)" fill="#f2b200"/>
        <path id="Path_2077" data-name="Path 2077" d="M-4.849,187.586a.578.578,0,0,1-.556.488H-7.356a.414.414,0,0,1-.418-.488l.273-1.952a.585.585,0,0,1,.558-.488h1.949a.415.415,0,0,1,.42.488Z" transform="translate(23.234 -185.146)" fill="#42ade2"/>
        <path id="Path_2078" data-name="Path 2078" d="M-11.025,196.589a.58.58,0,0,1-.556.488h-1.952a.415.415,0,0,1-.418-.488l.275-1.952a.578.578,0,0,1,.556-.488h1.949a.414.414,0,0,1,.42.488Z" transform="translate(13.955 -171.62)" fill="#c7e755"/>
        <path id="Path_2079" data-name="Path 2079" d="M-9.388,196.589a.58.58,0,0,1-.556.488h-1.949a.415.415,0,0,1-.42-.488l.275-1.952a.578.578,0,0,1,.556-.488h1.949a.414.414,0,0,1,.42.488Z" transform="translate(16.414 -171.62)" fill="#ff435e"/>
        <path id="Path_2080" data-name="Path 2080" d="M-7.751,196.589a.582.582,0,0,1-.556.488h-1.952a.415.415,0,0,1-.418-.488l.275-1.952a.578.578,0,0,1,.556-.488H-7.9a.414.414,0,0,1,.42.488Z" transform="translate(18.874 -171.62)" fill="#42ade2"/>
        <path id="Path_2081" data-name="Path 2081" d="M-6.114,196.589a.583.583,0,0,1-.558.488H-8.621a.415.415,0,0,1-.418-.488l.273-1.952a.58.58,0,0,1,.556-.488h1.952a.411.411,0,0,1,.418.488Z" transform="translate(21.333 -171.62)" fill="#c28fef"/>
        <path id="Path_2082" data-name="Path 2082" d="M-10.392,192.085a.58.58,0,0,1-.556.488H-12.9a.414.414,0,0,1-.418-.488l.273-1.949a.582.582,0,0,1,.556-.488h1.952a.414.414,0,0,1,.42.488Z" transform="translate(14.906 -178.382)" fill="#c7e755"/>
        <path id="Path_2083" data-name="Path 2083" d="M-8.755,192.085a.58.58,0,0,1-.556.488h-1.952a.413.413,0,0,1-.418-.488l.273-1.949a.581.581,0,0,1,.558-.488H-8.9a.413.413,0,0,1,.418.488Z" transform="translate(17.365 -178.382)" fill="#c28fef"/>
        <path id="Path_2084" data-name="Path 2084" d="M-7.118,192.085a.58.58,0,0,1-.558.488H-9.625a.413.413,0,0,1-.418-.488l.273-1.949a.58.58,0,0,1,.556-.488h1.952a.413.413,0,0,1,.418.488Z" transform="translate(19.825 -178.382)" fill="#42ade2"/>
        <path id="Path_2085" data-name="Path 2085" d="M-10.181,190.585a.58.58,0,0,1-.558.488h-1.949a.413.413,0,0,1-.418-.488l.273-1.952a.58.58,0,0,1,.556-.485h1.952a.413.413,0,0,1,.42.485Z" transform="translate(15.223 -180.636)" fill="#ff435e"/>
        <path id="Path_2086" data-name="Path 2086" d="M-8.543,190.585a.583.583,0,0,1-.558.488h-1.949a.412.412,0,0,1-.418-.488l.273-1.952a.58.58,0,0,1,.556-.485h1.952a.413.413,0,0,1,.418.485Z" transform="translate(17.682 -180.636)" fill="#f2b200"/>
        <path id="Path_2087" data-name="Path 2087" d="M-6.906,190.585a.58.58,0,0,1-.558.488H-9.414a.412.412,0,0,1-.418-.488l.273-1.952A.58.58,0,0,1-9,188.148h1.952a.413.413,0,0,1,.418.485Z" transform="translate(20.141 -180.636)" fill="#c7e755"/>
        <path id="Path_2088" data-name="Path 2088" d="M-5.271,190.585a.578.578,0,0,1-.556.488H-7.776a.414.414,0,0,1-.42-.488l.275-1.952a.578.578,0,0,1,.556-.485h1.949a.413.413,0,0,1,.42.485Z" transform="translate(22.6 -180.636)" fill="#f2b200"/>
        <path id="Path_2089" data-name="Path 2089" d="M-9.969,189.084a.58.58,0,0,1-.558.488h-1.949a.412.412,0,0,1-.418-.488l.273-1.949a.58.58,0,0,1,.556-.488h1.952a.414.414,0,0,1,.418.488Z" transform="translate(15.54 -182.891)" fill="#c28fef"/>
        <path id="Path_2090" data-name="Path 2090" d="M-8.332,189.084a.583.583,0,0,1-.558.488H-10.84a.411.411,0,0,1-.418-.488l.273-1.949a.58.58,0,0,1,.556-.488h1.952a.414.414,0,0,1,.418.488Z" transform="translate(17.999 -182.891)" fill="#42ade2"/>
        <path id="Path_2091" data-name="Path 2091" d="M-6.694,189.084a.58.58,0,0,1-.558.488H-9.2a.414.414,0,0,1-.42-.488l.275-1.949a.578.578,0,0,1,.556-.488h1.949a.414.414,0,0,1,.42.488Z" transform="translate(20.457 -182.891)" fill="#ff435e"/>
        <path id="Path_2092" data-name="Path 2092" d="M-5.06,189.084a.578.578,0,0,1-.556.488H-7.567a.414.414,0,0,1-.418-.488l.275-1.949a.578.578,0,0,1,.556-.488H-5.2a.414.414,0,0,1,.42.488Z" transform="translate(22.917 -182.891)" fill="#c28fef"/>
      </g>
    </g>
  </g>
</svg>
