<svg xmlns="http://www.w3.org/2000/svg" width="77.49" height="77.5" viewBox="0 0 77.49 77.5">
  <g id="Group_977" data-name="Group 977" transform="translate(-234.677 -190.597)">
    <path id="Path_679" data-name="Path 679" d="M269.564,205.867c-17.046,0-31.258-5.261-34.541-12.248,5.991,18.154,2.413,35.1,34.541,35.1s28.536-16.948,34.527-35.1C300.822,200.606,286.6,205.867,269.564,205.867Z" transform="translate(4.506 39.376)" fill="#3e4347"/>
    <path id="Path_680" data-name="Path 680" d="M258.118,193.713c18.267-5.023,60.061,2.553,50.942,19.908,4.981,5.654,6.846,11.7-17.215,11.378-36.926,8.712-67.4-9.33-53.916-22.826C234.675,195.565,241.8,192.184,258.118,193.713Z" transform="translate(0 20.734)" fill="#6f7980"/>
    <path id="Path_681" data-name="Path 681" d="M268.47,221.365c16.12,0,29.589-4.967,32.689-11.589.2-.617.393-1.263.589-1.894a6.2,6.2,0,0,0,.084-1.024c0-8-14.942-14.493-33.363-14.493s-33.363,6.5-33.363,14.493a6.153,6.153,0,0,0,.084,1.024c.182.631.379,1.277.589,1.894C238.881,216.4,252.336,221.365,268.47,221.365Z" transform="translate(5.6 23.05)" fill="#3e4347"/>
    <path id="Path_682" data-name="Path 682" d="M268.027,216.935c16.12,0,29.589-4.967,32.689-11.589l.182-.589c-2.694-6.847-16.387-12.052-32.872-12.052s-30.192,5.205-32.885,12.052l.2.589C238.438,211.969,251.893,216.935,268.027,216.935Z" transform="translate(6.043 27.48)" fill="#fbbf67"/>
    <path id="Path_683" data-name="Path 683" d="M259.382,193.217c-6.411-.154-14.31,5.037-19.585,4.686-8.755-.6.21,3.605,6.482,3.605,4.167,0,6.959-3.788,9.133-5.261C258.47,194.185,266.13,193.372,259.382,193.217Z" transform="translate(19.192 34.095)" fill="#d33b23"/>
    <path id="Path_684" data-name="Path 684" d="M242.381,194.264c-1.628-4.6-11.42,3.017-3.045,4.63C240.529,199.118,243.812,198.319,242.381,194.264Z" transform="translate(17.126 28.784)" fill="#ff8736"/>
    <path id="Path_685" data-name="Path 685" d="M245.122,195.622c-2.006-5.7-14.128,3.732-3.76,5.724C242.835,201.627,246.889,200.645,245.122,195.622Z" transform="translate(33.129 41.96)" fill="#ff8736"/>
    <path id="Path_686" data-name="Path 686" d="M245.169,194.141c-1.978-4.6-13.932,3.016-3.7,4.63C242.924,199,246.909,198.209,245.169,194.141Z" transform="translate(35.2 27.181)" fill="#ff8736"/>
    <path id="Path_687" data-name="Path 687" d="M247.919,195.6c-.716-5.079-16.148-2.147-5.5,3.059C243.935,199.4,248.551,200.088,247.919,195.6Z" transform="translate(52.218 30.788)" fill="#ff8736"/>
    <path id="Path_688" data-name="Path 688" d="M240.932,196.771c-1.417-1.978-3.452-4.5-4.307-3.2-1.151,1.8-1.515,5.415-.674,5.584C242.531,200.4,242.069,198.385,240.932,196.771Z" transform="translate(10.606 34.091)" fill="#89664c"/>
    <path id="Path_689" data-name="Path 689" d="M243.286,193.279c-2.385.968-3.76.309-4.8,1.782-2.455,3.437,5.892,4.6,7.492,2.609C247.172,196.2,244.8,192.661,243.286,193.279Z" transform="translate(43.804 34.006)" fill="#89664c"/>
    <path id="Path_690" data-name="Path 690" d="M245.806,194.365c-1.712-.758-1.3,1.768-3.83-.252-1.81-1.445-5.7,2.2-3.128,4.686,2.848,2.764,3.605.14,4.812.351C246.087,199.6,250.282,196.343,245.806,194.365Z" transform="translate(43.247 41.52)" fill="#89664c"/>
    <path id="Path_691" data-name="Path 691" d="M239.576,194.182c-1.543-1.515-4.013,2.792-3.073,4.027,1.992,2.609,8.895,2.02,10.747.1C249.494,195.978,243.251,197.8,239.576,194.182Z" transform="translate(21.082 42.558)" fill="#89664c"/>
    <path id="Path_692" data-name="Path 692" d="M241.509,195.039a19.136,19.136,0,0,0,.337,2.245c-1.669-.6-1.726-3.591-1.726-3.591a2.128,2.128,0,0,0-1.024,1.81,3.409,3.409,0,0,0-3.409-.785s2.343,1.319,2.666,2.2a2.605,2.605,0,0,0-2.539,1.614c0,.014,2.6-1.235,4.518-.337-.758.617-.379,2.175-.379,2.175,3.073-3.255,5.093-.323,6.412-1.136a4.531,4.531,0,0,0-2.82-1.754A5.777,5.777,0,0,0,241.509,195.039Z" transform="translate(13.158 40.327)" fill="#699635"/>
    <path id="Path_693" data-name="Path 693" d="M243.057,194.31a5.773,5.773,0,0,0-3.157.477,19.308,19.308,0,0,0,2.1.87c-1.361,1.122-3.956-.365-3.956-.365a2.133,2.133,0,0,0,1.024,1.81,3.425,3.425,0,0,0-2.427,2.525s2.329-1.333,3.255-1.151a2.58,2.58,0,0,0,.084,2.988c.014.014.281-2.862,2.035-4.055.14.982,1.669,1.445,1.669,1.445-1.221-4.307,2.329-4.532,2.315-6.075A4.443,4.443,0,0,0,243.057,194.31Z" transform="translate(25.64 28.457)" fill="#699635"/>
    <path id="Path_694" data-name="Path 694" d="M246.941,197.121c.631-.7,3.311-1.01,3.311-1.01a3.456,3.456,0,0,0-3.465-.589,2.106,2.106,0,0,0-.252-2.062s-1.192,2.736-2.974,2.652a16.859,16.859,0,0,0,1.179-1.95,5.66,5.66,0,0,0-2.806,1.487,4.512,4.512,0,0,0-3.283.519c.9,1.263,3.886-.673,5.472,3.507,0,0,.954-1.277.491-2.147,2.118-.084,4.04,2.062,4.04,2.049A2.555,2.555,0,0,0,246.941,197.121Z" transform="translate(51.751 37.291)" fill="#699635"/>
    <g id="Group_676" data-name="Group 676" transform="translate(255.341 190.597)" opacity="0.6">
      <path id="Path_695" data-name="Path 695" d="M244.407,202.747c-4.756-4.938-1.585-12.15-1.585-12.15s-10.017,9.526-3.69,16.092c7.309,7.6,3.69,12.318,3.69,12.318S251.885,210.505,244.407,202.747Z" transform="translate(-224.598 -190.597)" fill="#a6aeb0"/>
      <path id="Path_696" data-name="Path 696" d="M241.691,199.975c-3.578-3.592-1.206-8.825-1.206-8.825s-7.506,6.917-2.764,11.7c5.486,5.514,2.764,8.951,2.764,8.951S247.289,205.629,241.691,199.975Z" transform="translate(-236.15 -183.392)" fill="#a6aeb0"/>
      <path id="Path_697" data-name="Path 697" d="M243.715,199.975c-3.578-3.592-1.193-8.825-1.193-8.825s-7.52,6.917-2.778,11.7c5.5,5.514,2.778,8.951,2.778,8.951S249.312,205.629,243.715,199.975Z" transform="translate(-209.763 -183.392)" fill="#a6aeb0"/>
    </g>
  </g>
</svg>
