<svg xmlns="http://www.w3.org/2000/svg" width="20.12" height="20.135" viewBox="0 0 20.12 20.135">
  <g id="noun_Phone_373695" transform="translate(-5.437 -5.442)">
    <path id="Path_66" data-name="Path 66" d="M23.7,23.184a1.97,1.97,0,0,0,0-2.913L21.35,17.922a1.961,1.961,0,0,0-1.445-.655,2.037,2.037,0,0,0-1.445.655L17.1,19.277c-.113-.068-.226-.113-.339-.181-.158-.068-.294-.158-.429-.226a14.365,14.365,0,0,1-3.5-3.184,7.763,7.763,0,0,1-1.152-1.829c.339-.316.678-.655.994-.971l.361-.361a2.115,2.115,0,0,0,.678-1.468,2.063,2.063,0,0,0-.678-1.468L11.888,8.414c-.136-.136-.271-.271-.384-.407-.248-.271-.519-.542-.79-.79a2.013,2.013,0,0,0-1.423-.632,2.1,2.1,0,0,0-1.445.632L6.377,8.685a3.092,3.092,0,0,0-.926,1.965,7.874,7.874,0,0,0,.542,3.162,18.278,18.278,0,0,0,3.252,5.443,20.112,20.112,0,0,0,6.662,5.217,10.055,10.055,0,0,0,3.749,1.107h.271a3.18,3.18,0,0,0,2.439-1.061l.023-.023a7.936,7.936,0,0,1,.745-.768A4.242,4.242,0,0,0,23.7,23.184Zm-1.332-.248a9.823,9.823,0,0,0-.813.858,2.023,2.023,0,0,1-1.6.678h-.2A10.028,10.028,0,0,1,16.4,23.455a18.943,18.943,0,0,1-6.278-4.923,17.546,17.546,0,0,1-3.071-5.1,5.9,5.9,0,0,1-.474-2.665A2.065,2.065,0,0,1,7.168,9.5L8.613,8.052a.946.946,0,0,1,.655-.316.956.956,0,0,1,.655.316c.271.248.5.5.768.768l.407.407,1.152,1.152a.976.976,0,0,1,.339.678.976.976,0,0,1-.339.678l-.361.361c-.361.361-.7.7-1.061,1.039l-.023.023a.872.872,0,0,0-.226.949c0,.023,0,.023.023.045a8.832,8.832,0,0,0,1.378,2.236,15.678,15.678,0,0,0,3.771,3.433c.181.113.361.2.519.294.158.068.294.158.429.226.023,0,.023.023.045.023a.92.92,0,0,0,.407.113.909.909,0,0,0,.632-.294l1.468-1.468a.813.813,0,0,1,1.287,0l2.349,2.349a.866.866,0,0,1-.023,1.355A5.277,5.277,0,0,1,22.367,22.935Zm-6.5-13.392a.537.537,0,0,1,.655-.452,6.375,6.375,0,0,1,3.546,1.852,6.838,6.838,0,0,1,1.852,3.546.568.568,0,0,1-.452.655h-.09a.58.58,0,0,1-.565-.474,5.309,5.309,0,0,0-1.536-2.936A5.537,5.537,0,0,0,16.337,10.2.538.538,0,0,1,15.863,9.543Zm8.582,4.968a9.8,9.8,0,0,0-2.71-5.239,9.646,9.646,0,0,0-5.239-2.71.537.537,0,0,1-.452-.655.547.547,0,0,1,.655-.452,10.814,10.814,0,0,1,8.853,8.853.568.568,0,0,1-.452.655h-.09A.54.54,0,0,1,24.444,14.511Z" fill="#009ee2"/>
  </g>
</svg>
